<?xml version="1.0" encoding="utf-8"?>
<!-- Generator: Adobe Illustrator 20.1.0, SVG Export Plug-In . SVG Version: 6.00 Build 0)  -->
<svg version="1.1"
	 id="svg2" xmlns:cc="http://creativecommons.org/ns#" xmlns:dc="http://purl.org/dc/elements/1.1/" xmlns:rdf="http://www.w3.org/1999/02/22-rdf-syntax-ns#" xmlns:svg="http://www.w3.org/2000/svg"
	 xmlns="http://www.w3.org/2000/svg" xmlns:xlink="http://www.w3.org/1999/xlink" x="0px" y="0px" viewBox="0 0 300 300"
	 style="enable-background:new 0 0 300 300;" xml:space="preserve">
<style type="text/css">
	.st0{fill:#F68D11;}
	.st1{fill:#100F0D;}
</style>
<g id="g10" transform="matrix(1.25,0,0,-1.25,0,217.5)">
	<g id="g12" transform="scale(0.1,0.1)">
		<path id="path14" class="st0" d="M667.1,679.7l-139.5,46.6v201.7l139.7-41.4L667.1,679.7"/>
		<path id="path16" class="st0" d="M703.4,886.6l139.7,41.4l-0.5-201.6l-139.2-46.7V886.6"/>
		<path id="path18" class="st0" d="M814.7,949.8L684.5,990L556,949.8l128.6-34.5L814.7,949.8"/>
		<path id="path20" class="st0" d="M1018.8,679.7l-139.5,46.6v201.7l139.7-41.4L1018.8,679.7"/>
		<path id="path22" class="st0" d="M1055.2,886.6l139.7,41.4l-0.5-201.6l-139.2-46.7V886.6"/>
		<path id="path24" class="st0" d="M1166.4,949.8L1036.2,990l-128.5-40.2l128.6-34.5L1166.4,949.8"/>
		<path id="path26" class="st0" d="M139.7,591.7L0,633.1V431.4l139.5-46.6L139.7,591.7"/>
		<path id="path28" class="st0" d="M175.9,591.7l139.7,41.4L315,431.5l-139.2-46.7V591.7"/>
		<path id="path30" class="st0" d="M287.1,654.9l-130.2,40.2L28.4,654.9l128.6-34.5L287.1,654.9"/>
		<path id="path32" class="st0" d="M491.2,384.8l-139.5,46.6v201.7l139.7-41.4L491.2,384.8"/>
		<path id="path34" class="st0" d="M527.6,591.7l139.7,41.4l-0.5-201.6l-139.2-46.7V591.7"/>
		<path id="path36" class="st0" d="M638.8,654.9l-130.2,40.2l-128.5-40.2l128.6-34.5L638.8,654.9"/>
		<path id="path38" class="st0" d="M315.3,90l-139.5,46.6v201.7l139.7-41.4L315.3,90"/>
		<path id="path40" class="st0" d="M351.7,296.9l139.7,41.4l-0.5-201.6L351.7,90V296.9"/>
		<path id="path42" class="st0" d="M462.9,360.1l-130.2,40.2l-128.5-40.2L333,325.6L462.9,360.1"/>
		<path id="path44" class="st1" d="M933.1,268.3l-10.3,0c-3.8,0-8.6-2.5-9.7-6.7l-31.1-109.7l-30.8,109.4c-0.9,3.4-4.2,6.9-8.6,6.9
			h-12.1c-4.4,0-7.6-3.5-8.5-7L793.3,153l-29.6,108.6c-1.2,4-6.1,6.6-9.9,6.6l-14.8,0c-3.2,0-6.1-1.4-7.7-3.5
			c-1.1-1.5-1.4-3.2-0.9-4.6l45.7-161.9c1-3.4,4-6.8,8.3-6.8h14.7c4,0,7.4,2.9,8.4,7l28.1,107.8l30.6-108c0.9-3.3,3.9-6.9,8.2-6.9
			H889c4,0,7.4,2.8,8.4,6.9l44,161.8c0.5,1.6,0.2,3.3-0.8,4.7C939.1,267,936.2,268.3,933.1,268.3"/>
		<path id="path46" class="st1" d="M1060,199.6h-77.6c1.8,21.8,15.9,44.3,39.9,45.2C1047.8,244,1059.5,221.9,1060,199.6z
			 M1022.3,269.5c-52.4,0-76.3-46.3-76.3-89.4c0-53.7,29.7-88.4,75.6-88.4c32.9,0,57.9,16.6,68.7,45.6c0.6,1.7,0.4,3.5-0.5,5.1
			c-1.1,2-3.2,3.4-5.7,4l-14.5,2.8c-3.9,0.6-8.4-1.7-9.9-5.1c-7.1-16.1-19.9-25.3-36.1-25.7c-15.6,0.5-29.8,9.7-36.4,23.5
			c-5.3,11.3-6.1,22.4-6.2,33.7l105.3,0c2.2,0,4.5,1,6.1,2.6c1.4,1.4,2.1,3,2.1,4.7C1094.3,224.8,1075.2,269.5,1022.3,269.5"/>
		<path id="path48" class="st1" d="M1224.1,179.9c0-9.9-1.8-59.4-37-60.7c-11.8,0.5-23.7,7.4-30.3,17.6c-4.9,7.7-7.8,18.5-8.5,31.7
			v29.1c0.6,22.3,16.3,46.8,38.7,47.7C1222.3,244,1224.1,190.5,1224.1,179.9L1224.1,179.9z M1192.7,271h-2.8
			c-17.4,0-31.1-7.2-41.6-22l0,68.2c0,3.8-4,7.3-8.3,7.3h-15.1c-4,0-8.4-3.1-8.4-7.3v-213c0-3.9,4-7.4,8.3-7.4l4.4,0
			c4.2,0,7.2,3.4,8.2,6.5l4.7,15c11-15.6,27.6-24.8,45.3-24.8h2.7c46.7,0,67.7,45.5,67.7,90.5c0,22.4-5.5,43.9-15.2,58.8
			C1231.6,260.2,1212.4,271,1192.7,271"/>
		<path id="path50" class="st1" d="M1423.7,184.6c-9.8,7.1-21.7,9.4-33.5,11.8l-22.7,4.2c-16.3,2.7-25.8,7.1-25.8,21.5
			c0,15.2,15.8,21,29.2,21.4c16.3-0.4,28.6-7.7,34.6-20.5c1.4-3,4.6-5.1,7.8-5.1c0.6,0,1.1,0.1,1.7,0.2l14.2,3.1
			c2.3,0.5,4.5,2.1,5.6,4.2c0.9,1.6,1.1,3.4,0.6,5c-8.7,25.3-30.7,38.7-64.1,38.7c-30.1-0.1-62.3-13.5-62.3-50.9
			c0-25.6,16.1-41.8,47.8-48.3l25.5-4.9c14-2.7,28.3-7.4,28.3-22.4c0-22.2-25.9-24.5-33.7-24.6c-17.5,0.4-37.4,8.2-42.2,24.8
			c-1,3.6-5.5,6.2-9.6,5.4l-14.8-3.1c-2.2-0.5-4.3-1.9-5.5-3.9c-1-1.6-1.3-3.5-0.8-5.1c7.7-27.5,34.2-44.1,71-44.3l0.8,0
			c32.8,0,67.9,14.1,67.9,53.5C1443.5,161.3,1436.3,175.7,1423.7,184.6"/>
		<path id="path52" class="st1" d="M1573.8,199.4h-77.6c1.8,21.8,15.9,44.4,39.9,45.2C1561.6,243.8,1573.2,221.8,1573.8,199.4z
			 M1536.1,269.3c-52.4,0-76.3-46.3-76.3-89.4c0-53.7,29.7-88.4,75.6-88.4c32.9,0,57.9,16.6,68.7,45.6c0.6,1.7,0.4,3.5-0.5,5.1
			c-1.1,2-3.2,3.4-5.7,4l-14.6,2.8c-3.4,0.6-8.2-1.2-9.8-5.1c-7.1-16.1-20-25.3-36.1-25.7c-15.6,0.5-29.8,9.7-36.4,23.5
			c-5.3,11.2-6.1,22.4-6.2,33.7l105.3,0c2.2,0,4.5,1,6.1,2.6c1.4,1.4,2.1,3,2.1,4.7C1608.1,224.6,1589,269.3,1536.1,269.3"/>
		<path id="path54" class="st1" d="M1707.8,267.4c-2.1,0.2-4,0.3-5.9,0.3c-17.7,0-32-9.6-42-28l0,16.1c0,3.9-3.9,7.3-8.3,7.3h-13.2
			c-4.3,0-8.1-3.4-8.2-7.4l0-156.2c0-3.9,3.8-7.4,8.2-7.4l15.3,0c4,0,8.5,3.1,8.5,7.4l0,78.7c0,13,1.2,22.8,7.4,34.3
			c8.9,16.5,21.2,24.6,37.8,24.7c4.2,0,7.8,3.7,7.8,7.8v14.6C1715.3,263.5,1712,266.9,1707.8,267.4"/>
		<path id="path56" class="st1" d="M1868.9,270.4l-12.1,0c-3.8,0-8.7-2.7-9.8-6.7l-39.3-123.5l-40.1,123.3c-1.2,4.1-6.1,6.8-9.9,6.8
			l-17.3,0c-3.2,0-6.2-1.4-7.8-3.6c-1.1-1.5-1.3-3.1-0.8-4.7l54.9-162.9c1.1-3.2,3.9-7,8.3-7h20.9c3.8,0,7,2.6,8.4,7l53.3,162.8
			c0.5,1.5,0.2,3.2-0.8,4.7C1875.1,269,1872.1,270.4,1868.9,270.4"/>
		<path id="path58" class="st1" d="M1908.7,333c-11.2,0-20.2-9.1-20.2-20.3c0-11.2,9.1-20.3,20.2-20.3c11.2,0,20.3,9.1,20.3,20.3
			C1929,323.9,1919.9,333,1908.7,333"/>
		<path id="path60" class="st1" d="M1917,271.4l-16.6,0c-4.5,0-8.6-3.7-8.6-7.7l-0.1-165.8c0-2,1-4,2.8-5.5c1.6-1.3,3.7-2.1,5.8-2.1
			l16.7,0h0c4.6,0,8.6,3.6,8.6,7.6v165.8C1925.7,267.8,1921.7,271.4,1917,271.4"/>
		<path id="path62" class="st1" d="M2072.4,159l-13.9-0.1c-3.9,0-7.1-2.3-8.6-6.4c-5.1-21.9-16.6-33.2-34-33.7
			c-33.9,1-36.5,48.3-36.5,62.7c0,28.8,10,60,37.9,60.8c16.8-0.5,29.1-12.6,32.7-32.3c0.7-4,3.8-7,8-7.6l14.8-0.1
			c4.4,0.5,7.9,3.8,7.9,8c-5.3,35.5-29.9,58.5-62.8,58.5l-1.1,0l-1.3,0c-47.9,0-69.3-44.7-69.3-88.9c0-40.6,18.1-88,69-88h2.4
			c32.1,0,56.3,22.5,63.2,59c0.2,1.7-0.4,3.5-1.7,4.9C2077.7,157.7,2075.1,158.8,2072.4,159"/>
		<path id="path64" class="st1" d="M2209.4,199.4h-77.6c1.8,21.8,15.9,44.4,39.9,45.2C2197.2,243.8,2208.8,221.8,2209.4,199.4z
			 M2171.6,269.3c-52.4,0-76.3-46.3-76.3-89.4c0-53.7,29.7-88.4,75.6-88.4c32.9,0,57.9,16.6,68.7,45.6c0.6,1.7,0.4,3.5-0.5,5.1
			c-1.1,2-3.1,3.4-5.7,4L2219,149c-3.4,0.6-8.2-1.2-9.8-5.1c-7.1-16.1-20-25.3-36.1-25.8c-15.6,0.5-29.8,9.7-36.4,23.5
			c-5.3,11.3-6.1,22.4-6.2,33.7l105.3,0c2.2,0,4.5,1,6.1,2.6c1.3,1.4,2.1,3.1,2,4.7C2243.7,224.6,2224.6,269.3,2171.6,269.3"/>
		<path id="path66" class="st1" d="M2375.9,184.6c-9.9,7.1-21.7,9.4-33.6,11.8l-22.7,4.2c-16.3,2.7-25.7,7.1-25.7,21.5
			c0,19.6,24.4,21.3,29.1,21.4c16.3-0.4,28.6-7.7,34.6-20.5c1.4-3,4.6-5,7.8-5c0.6,0,1.1,0.1,1.7,0.2l14.2,3.1
			c2.3,0.5,4.5,2.1,5.6,4.2c0.9,1.6,1.1,3.4,0.6,5c-8.7,25.3-30.7,38.7-64.1,38.7c-30.1-0.1-62.3-13.5-62.3-50.9
			c0-25.6,16.1-41.8,47.8-48.3l25.5-4.9c14-2.7,28.3-7.4,28.3-22.4c0-22.2-25.9-24.5-33.7-24.6c-16.3,0.3-37.1,7.1-42.2,24.7
			c-0.9,3.7-5.5,6.2-9.6,5.4l-14.8-3.1c-2.2-0.5-4.3-1.9-5.5-3.9c-1-1.6-1.3-3.5-0.8-5.1c7.6-27.5,34.2-44.1,70.9-44.3l0.8,0
			c32.8,0,68,14.1,68,53.5C2395.7,161.3,2388.4,175.7,2375.9,184.6"/>
		<path id="path68" class="st1" d="M1700.3,590.7v37.7c0,5.7,4.4,9.5,9.6,9.5l168.7,0c5.4,0,9.7-3.9,9.7-9.5v-32.3
			c-0.1-5.4-4.6-12.5-12.7-23.7l-87.4-124.8c32.4,0.8,66.7-4.1,96.2-20.6c6.7-3.7,8.4-9.3,9-14.7v-40.2c0-5.5-6.1-11.9-12.4-8.6
			c-51.9,27.2-120.8,30.2-178.3-0.3c-5.9-3.1-12,3.2-12,8.7v38.2c0,6.1,0.1,16.6,6.3,25.9l101.3,145.2l-88.1,0
			C1704.6,581.2,1700.3,585.1,1700.3,590.7"/>
		<path id="path70" class="st1" d="M1084.9,355.6h-51.3c-4.9,0.3-8.8,4-9.2,8.7l0,263.4c0,5.3,4.4,9.5,9.9,9.5l47.8,0
			c5-0.3,9-4.1,9.4-8.8v-34.4h1c12.4,33.3,35.9,48.8,67.5,48.8c32.1,0,52.2-15.5,66.6-48.8c12.5,33.3,40.7,48.8,70.9,48.8
			c21.6,0,45-8.9,59.4-28.8c16.3-22.2,12.9-54.3,12.9-82.6l0-166.2c0-5.3-4.4-9.5-9.9-9.5h-51.3c-5.2,0.3-9.2,4.4-9.2,9.5v139.7
			c0,11.1,0.9,38.8-1.4,49.3c-3.8,17.8-15.3,22.7-30.2,22.7c-12.5,0-25.4-8.3-30.7-21.6c-5.3-13.3-4.8-35.5-4.8-50.5V365.1
			c0-5.3-4.4-9.5-9.9-9.5h-51.3c-5.1,0.3-9.2,4.4-9.2,9.5l-0.1,139.7c0,29.4,4.8,72.6-31.6,72.6c-36.9,0-35.5-42.1-35.5-72.6
			l0-139.6C1094.8,359.8,1090.4,355.6,1084.9,355.6"/>
		<path id="path72" class="st1" d="M2033.9,589c-37.9,0-40.3-51.5-40.3-83.7c0-32.1-0.5-100.9,39.8-100.9
			c39.8,0,41.7,55.4,41.7,89.2c0,22.2-0.9,48.8-7.7,69.8C2061.7,581.8,2050.2,589,2033.9,589z M2033.5,642.7
			c76.2,0,117.4-65.4,117.4-148.5c0-80.4-45.5-144.1-117.4-144.1c-74.7,0-115.5,65.4-115.5,146.9
			C1918,579,1959.2,642.7,2033.5,642.7"/>
		<path id="path74" class="st1" d="M2249.6,355.6h-51.1c-5.2,0.3-9.2,4.4-9.2,9.5l-0.1,263.5c0.4,4.8,4.7,8.6,9.8,8.6l47.6,0
			c4.5-0.2,8.2-3.3,9.1-7.4v-40.3h1c14.4,36,34.5,53.2,69.9,53.2c23,0,45.5-8.3,59.9-31c13.4-21.1,13.4-56.5,13.4-82V363.9
			c-0.6-4.7-4.7-8.3-9.8-8.3h-51.5c-4.7,0.3-8.6,3.8-9.1,8.3v143c0,28.8,3.4,71-32.1,71c-12.4,0-23.9-8.3-29.7-21.1
			c-7.2-16.1-8.1-32.1-8.1-49.9V365.1C2259.5,359.8,2255.1,355.6,2249.6,355.6"/>
		<path id="path76" class="st1" d="M1657.2,403.9c-9.4,13-19.4,23.5-19.4,47.6v79.9c0,33.9,2.4,65-22.6,88.3
			c-19.7,18.9-52.3,25.5-77.3,25.5c-48.9,0-103.4-18.2-114.8-78.6c-1.2-6.4,3.4-9.8,7.7-10.7l49.7-5.4c4.6,0.2,8,4.8,8.9,9.4
			c4.3,20.8,21.7,30.8,41.3,30.8c10.6,0,22.6-3.8,28.8-13.3c7.2-10.6,6.2-25,6.2-37.2v-6.7c-29.8-3.4-68.7-5.5-96.5-17.8
			c-32.2-13.9-54.7-42.2-54.7-83.9c0-53.3,33.6-80,76.8-80c36.5,0,56.4,8.6,84.6,37.3c9.3-13.4,12.4-20,29.4-34.2
			c3.8-2.1,8.7-1.9,12.1,1.2l0.1-0.1c10.3,9.1,28.9,25.3,39.4,34.1C1661.2,393.6,1660.4,399.2,1657.2,403.9z M1556.2,427
			c-8.2-14.4-21.1-23.3-35.5-23.3c-19.7,0-31.2,15-31.2,37.2c0,43.7,39.2,51.6,76.3,51.6v-11.1
			C1565.8,461.4,1566.2,444.7,1556.2,427z"/>
		<path id="path78" class="st1" d="M984.3,403.9c-9.4,13-19.4,23.5-19.4,47.6v79.9c0,33.9,2.4,65-22.6,88.3
			c-19.7,18.9-52.3,25.5-77.3,25.5c-48.9,0-103.4-18.2-114.8-78.6c-1.2-6.4,3.5-9.8,7.7-10.7l49.8-5.4c4.6,0.2,8,4.8,8.9,9.4
			c4.3,20.8,21.7,30.8,41.3,30.8c10.6,0,22.6-3.8,28.8-13.3c7.2-10.6,6.2-25,6.2-37.2v-6.7c-29.8-3.4-68.6-5.5-96.5-17.8
			c-32.2-13.9-54.7-42.2-54.7-83.9c0-53.3,33.6-80,76.8-80c36.5,0,56.5,8.6,84.6,37.3c9.4-13.4,12.4-20,29.4-34.2
			c3.8-2.1,8.8-1.9,12.2,1.2l0.1-0.1c10.3,9.1,28.9,25.3,39.4,34.1C988.3,393.6,987.6,399.2,984.3,403.9z M883.4,427
			c-8.2-14.4-21.1-23.3-35.5-23.3c-19.7,0-31.2,15-31.2,37.2c0,43.7,39.2,51.6,76.3,51.6v-11.1C893,461.4,893.4,444.7,883.4,427z"/>
	</g>
</g>
</svg>
