<?xml version="1.0" encoding="utf-8"?>
<!-- Generator: Adobe Illustrator 20.1.0, SVG Export Plug-In . SVG Version: 6.00 Build 0)  -->
<svg version="1.1" id="Layer_1" xmlns="http://www.w3.org/2000/svg" xmlns:xlink="http://www.w3.org/1999/xlink" x="0px" y="0px"
	 viewBox="0 0 300 297.2" style="enable-background:new 0 0 300 297.2;" xml:space="preserve">
<g>
	
		<linearGradient id="SVGID_1_" gradientUnits="userSpaceOnUse" x1="459.005" y1="412.8544" x2="26.6339" y2="46.2781" gradientTransform="matrix(1 0 0 -1 0 299.3963)">
		<stop  offset="0" style="stop-color:#7A2D4E"/>
		<stop  offset="0.135" style="stop-color:#732B4C"/>
		<stop  offset="0.3599" style="stop-color:#5F2646"/>
		<stop  offset="0.6469" style="stop-color:#411E3D"/>
		<stop  offset="0.9819" style="stop-color:#171130"/>
		<stop  offset="1" style="stop-color:#14102F"/>
	</linearGradient>
	<path style="fill:url(#SVGID_1_);" d="M254.7,297.2H45.3c-25,0-45.3-20.3-45.3-45.3V45.3C0,20.3,20.3,0,45.3,0h209.4
		C279.5,0,300,20.3,300,45.3v206.6C300,276.7,279.5,297.2,254.7,297.2z"/>
	<g>
		<path style="fill:#FFFFFF;" d="M163.5,56.1c8.4,0,16,0.6,22.9,2.2c6.9,1.5,12.9,3.9,17.7,7.3c5.2,3.5,9.1,7.8,11.6,13.4
			c2.8,5.6,4.1,12.5,4.1,20.7c0,8.8-1.9,16.4-6,22.2c-4.1,5.8-9.9,10.8-17.9,14.7c10.8,3.2,19,8.6,24.4,16.4s8,17.3,8,28.3
			c0,8.8-1.7,16.6-5.2,23.1c-3.5,6.5-8.2,11.9-14,16c-5.8,4.1-12.5,7.1-20.1,9.1c-7.5,1.9-15.1,3-23.1,3H80.7V56.1H163.5z
			 M158.5,127.5c6.9,0,12.5-1.7,17-5c4.5-3.2,6.7-8.6,6.7-16c0-4.1-0.6-7.5-2.2-10.1c-1.5-2.6-3.5-4.7-5.8-6.3s-5.4-2.6-8.4-3
			c-3.2-0.6-6.5-0.9-9.9-0.9h-36.7v41.2C119.3,127.5,158.5,127.5,158.5,127.5z M160.9,202.3c3.9,0,7.3-0.4,10.8-1.1
			c3.5-0.6,6.5-1.9,9.1-3.7c2.6-1.7,4.7-4.1,6.3-7.1c1.5-3,2.4-6.7,2.4-11.4c0-9.1-2.6-15.5-7.5-19.4c-5.2-3.9-11.9-5.8-20.3-5.8
			h-42.3v48.3h41.6V202.3z"/>
	</g>
</g>
</svg>
