<?xml version="1.0" encoding="utf-8"?>
<!-- Generator: Adobe Illustrator 20.1.0, SVG Export Plug-In . SVG Version: 6.00 Build 0)  -->
<svg version="1.1" id="Layer_1" xmlns="http://www.w3.org/2000/svg" xmlns:xlink="http://www.w3.org/1999/xlink" x="0px" y="0px"
	 viewBox="0 0 300 297.2" style="enable-background:new 0 0 300 297.2;" xml:space="preserve">
<style type="text/css">
	.st0{fill:#2850AD;}
	.st1{fill:#FFFFFF;}
</style>
<circle class="st0" cx="150" cy="148.6" r="148.5"/>
<path class="st1" d="M185.3,122.8c-2.5-8.9-7.3-25.7-33.1-25.7c-14.9,0-37,10-37,52.2c0,26.8,10.6,51,37,51
	c17.2,0,29.3-9.8,33.1-28.1h31.2c-6.2,32.5-27.4,55.1-64.8,55.1c-39.7,0-68.2-26.8-68.2-78.4c0-52.2,30.2-78.8,68.6-78.8
	c44.7,0,62.8,30.8,64.4,52.9L185.3,122.8L185.3,122.8z"/>
</svg>
