<?xml version="1.0" encoding="utf-8"?>
<!-- Generator: Adobe Illustrator 20.1.0, SVG Export Plug-In . SVG Version: 6.00 Build 0)  -->
<svg version="1.1" id="Layer_1" xmlns:sketch="http://www.bohemiancoding.com/sketch/ns"
	 xmlns="http://www.w3.org/2000/svg" xmlns:xlink="http://www.w3.org/1999/xlink" x="0px" y="0px" viewBox="0 0 300 297.2"
	 style="enable-background:new 0 0 300 297.2;" xml:space="preserve">
<title>Slice 1</title>
<description>Created with Sketch (http://www.bohemiancoding.com/sketch)</description>
<g id="Page_1">
	<g id="Layer_1_1_">
		<path id="Shape" style="fill:#131313;" d="M210.3,9.7h-17.6L211,29.6v9.5h-37.8V28h18.3L173.2,8.1v-9.5h37.1V9.7L210.3,9.7z
			 M165.7,9.7h-17.6l18.3,19.9v9.5h-37.8V28H147L128.6,8.1v-9.5h37.1V9.7L165.7,9.7z M121.6,10.2h-19v17.4h19v11.6H89V-1.4h32.6
			V10.2L121.6,10.2z"/>
		<path id="Shape_1_" style="fill:#1572B6;" d="M63.1,274.5L43.7,57.6h212.5l-19.4,216.9l-87,24.1L63.1,274.5z"/>
		<path id="Shape_2_" style="fill:#33A9DC;" d="M150,280.2l70.3-19.5l16.5-185.4H150V280.2z"/>
		<g id="Group" transform="translate(55.000000, 142.000000)">
			<path id="Shape_3_" style="fill:#FFFFFF;" d="M95,11.9h35.2l2.4-27.2H95V-42h0.1h66.6l-0.6,7.1l-6.5,73.3H95V11.9z"/>
			<path id="Shape_4_" style="fill:#EBEBEB;" d="M95.2,81L95,81l-29.6-8l-1.9-21.2H49.1H36.8l3.7,41.8L95,108.7l0.1,0V81z"/>
			<path id="Shape_5_" style="fill:#FFFFFF;" d="M127.9,37.4L124.7,73l-29.7,8v27.7l54.5-15.1l0.4-4.5l4.6-51.7H127.9z"/>
			<path id="Shape_6_" style="fill:#EBEBEB;" d="M95.1-42v16.5v10v0.1H30.9h-0.1l-0.5-6l-1.2-13.5L28.4-42H95.1z"/>
			<path id="Shape_7_" style="fill:#EBEBEB;" d="M95,11.9v16.5v10v0.1H65.8h-0.1l-0.5-6L64,19l-0.6-7.1H95z"/>
		</g>
	</g>
</g>
</svg>
