<?xml version="1.0" encoding="utf-8"?>
<!-- Generator: Adobe Illustrator 20.1.0, SVG Export Plug-In . SVG Version: 6.00 Build 0)  -->
<svg version="1.1" id="Layer_1" xmlns="http://www.w3.org/2000/svg" xmlns:xlink="http://www.w3.org/1999/xlink" x="0px" y="0px"
	 viewBox="0 0 300 297.2" style="enable-background:new 0 0 300 297.2;" xml:space="preserve">
<g>
	<path style="fill:#DE4C36;" d="M294.3,135.4L163.4,5.6c-7.5-7.5-19.8-7.5-27.3,0l-27.2,26.9l34.5,34.2c8-2.7,17.2-0.9,23.6,5.4
		c6.4,6.4,8.2,15.6,5.5,23.5l33.3,32.9c8-2.7,17.3-1,23.8,5.4c9,8.9,9,23.3,0,32.2c-9,8.9-23.5,8.9-32.5,0c-6.8-6.7-8.4-16.5-5-24.8
		l-31-30.7l0,80.8c2.2,1.1,4.3,2.5,6.1,4.3c9,8.9,9,23.3,0,32.2c-9,8.9-23.5,8.9-32.5,0c-9-8.9-9-23.3,0-32.2c2.2-2.2,4.8-3.9,7.5-5
		v-81.6c-2.7-1.1-5.3-2.8-7.5-5c-6.8-6.7-8.4-16.6-5-24.9l-34-33.7l-89.8,89c-7.5,7.5-7.5,19.6,0,27.1l131,129.8
		c7.5,7.5,19.8,7.5,27.3,0l130.4-129.2C301.9,155,301.9,142.8,294.3,135.4"/>
</g>
</svg>
