<?xml version="1.0" encoding="utf-8"?>
<!-- Generator: Adobe Illustrator 20.1.0, SVG Export Plug-In . SVG Version: 6.00 Build 0)  -->
<svg version="1.1" id="Layer_1" xmlns="http://www.w3.org/2000/svg" xmlns:xlink="http://www.w3.org/1999/xlink" x="0px" y="0px"
	 viewBox="0 0 300 297.2" style="enable-background:new 0 0 300 297.2;" xml:space="preserve">
<g>
	<path style="fill:#CAC9C2;" d="M95.4,239.2l-52.7-91.3l52.7-91.3h105.5l52.7,91.3l-52.7,91.3H95.4"/>
	<path style="fill:#FFFFFF;" d="M149.9,189.5c-22.7,0-41.1-18.4-41.1-41.1c0-22.7,18.4-41.1,41.1-41.1c22.7,0,41.1,18.4,41.1,41.1
		C191,171.1,172.6,189.5,149.9,189.5"/>
	<g transform="translate(25.207161, 0.000000)">
		<path style="fill:#5072AA;" d="M207.4,25.9c-3.2-5.6-11.2-10.2-17.6-10.2H59.8c-6.5,0-14.4,4.6-17.6,10.2l-38,65.8
			c-0.3,4.2,0.5,8.7,2.4,11.9l25.7,43.9l45.9-79.3h145c3.4,0,7.3,1.3,10.6,3.3L207.4,25.9"/>
		<path style="fill:#4D6796;" d="M5.9,88.8l-1.7,2.9c-0.3,4.2,0.5,8.7,2.4,11.9l25.7,43.9l13.7-23.6L5.9,88.8"/>
		<path style="fill:#FFFFFF;" d="M63.2,49.5c-4.4,0-7.9-3.6-7.9-7.9c0-4.4,3.6-7.9,7.9-7.9c4.4,0,7.9,3.6,7.9,7.9
			C71.1,45.9,67.5,49.5,63.2,49.5"/>
		<path style="fill:#FFFFFF;" d="M193.1,41.6c0,4.1-3.3,7.3-7.3,7.3c-4.1,0-7.3-3.3-7.3-7.3s3.3-7.3,7.3-7.3
			C189.8,34.2,193.1,37.5,193.1,41.6L193.1,41.6z"/>
	</g>
	<g transform="translate(138.475703, 44.521739)">
		<path style="fill:#CC4232;" d="M159.1,93.9l-38.6-66.8c-3.3-2-7.2-3.3-10.6-3.3H57.6l45.2,79.7L31.2,229.9c-1.6,2.7-4.3,5.2-7.4,7
			h52.6c6.5,0,14.4-4.6,17.6-10.2l65-112.5C162.3,108.7,162.3,99.5,159.1,93.9"/>
		<path style="fill:#B23F33;" d="M122.3,30.1l-1.7-3c-3.3-2-7.2-3.3-10.6-3.3H57.6l13.6,24L122.3,30.1"/>
		<path style="fill:#FFFFFF;" d="M72.5,217.5c-4.4,0-7.9-3.6-7.9-7.9c0-4.4,3.6-7.9,7.9-7.9c4.4,0,7.9,3.6,7.9,7.9
			C80.4,214,76.9,217.5,72.5,217.5"/>
		<path style="fill:#FFFFFF;" d="M134.2,111.8c-4.4,0-7.9-3.6-7.9-7.9c0-4.4,3.6-7.9,7.9-7.9c4.4,0,7.9,3.6,7.9,7.9
			C142.1,108.3,138.6,111.8,134.2,111.8"/>
	</g>
	<g transform="translate(0.000000, 64.491049)">
		<path style="fill:#ECB02A;" d="M104.4,163.2L31.8,39.1c-1.9-3.2-2.7-7.7-2.4-11.9l-27,46.8c-3.2,5.6-3.2,14.8,0,20.4l65,112.5
			C70.6,212.4,78.6,217,85,217h77.3c3.1-1.8,5.8-4.3,7.4-7l26.5-46.8H104.4"/>
		<path style="fill:#C79732;" d="M158,217h4.5c3.1-1.8,5.8-4.3,7.4-7l26.5-46.8h-28.2L158,217"/>
		<path style="fill:#FFFFFF;" d="M88.4,197.6c-4.4,0-7.9-3.6-7.9-7.9c0-4.4,3.6-7.9,7.9-7.9c4.4,0,7.9,3.6,7.9,7.9
			C96.3,194,92.7,197.6,88.4,197.6"/>
		<path style="fill:#FFFFFF;" d="M26.5,91.9c-4.4,0-7.9-3.6-7.9-7.9c0-4.4,3.6-7.9,7.9-7.9c4.4,0,7.9,3.6,7.9,7.9
			C34.5,88.3,30.9,91.9,26.5,91.9"/>
	</g>
</g>
</svg>
