<?xml version="1.0" encoding="utf-8"?>
<!-- Generator: Adobe Illustrator 20.1.0, SVG Export Plug-In . SVG Version: 6.00 Build 0)  -->
<svg version="1.1" id="Layer_1" xmlns="http://www.w3.org/2000/svg" xmlns:xlink="http://www.w3.org/1999/xlink" x="0px" y="0px"
	 viewBox="0 0 300 300" style="enable-background:new 0 0 300 300;" xml:space="preserve">
<style type="text/css">
	.st0{fill:#462F15;}
	.st1{fill:#FBA919;}
	.st2{fill:#463015;}
	.st3{fill:#FFFFFF;}
	.st4{fill:#E88824;}
</style>
<g>
	<path class="st0" d="M41.7,27.2c0,0,38.7-39.5,73.4,10.2c1.9-0.6,4.3-1.5,4.3-1.5s3.7-20.5,17.3-28.7c0.4,10.8,4.1,17.3,4.1,17.3
		s4.3-18.6,22-24.4c-4.3,14.7,1.5,21,1.5,21s16.8-10.2,20.5-7.1c-4.8,5.4-6.3,21.6-6.3,21.6l4.8,1.9c0,0,45.8-51.2,75.4-9.5
		C226.2,31.7,235.3,54,235.3,54s36.3,4.3,12.5,35.2c-3.9,13.2,1.1,22.9,1.1,22.9s37.6,24.4-18.1,49.9c-9.7,6.7-1.9,51.4-1.9,51.4
		s12.1-7.6,14.3-26.3c33.9,40.8-5,71.1-15.3,72.6c-11.4,25.3-38.2,29.2-38.2,29.2s-7.8,11.2-35.9,11.2s-41.7-11.2-41.7-11.2
		s-29.8-3.9-38-29.2c-6.3-1.5-46.9-22.9-16.8-72.6c4.1,20.3,15.3,24.4,15.3,24.4s7.1-44.1-1.9-49.5c-13.8-7.3-51-24.8-19.2-49.7
		c6.9-10.6,1.3-23.3,1.3-23.3S31.2,60.7,65.7,53.8C72.6,29.6,41.7,27.2,41.7,27.2z"/>
	<path class="st1" d="M110.2,229.8h81.9c0,0-13.6-36.5-13.4-51.8c8.6,16,18.4,43.8,18.4,43.8s20.3-0.2,23.5-3.9
		c0.6-10.2-6.7-49.7,3.5-59.4c14.7-13.2,40.2-18.1,22.5-37.6c-0.4,2.8,0,6.9,0,6.9s-15.6-24.8-5.4-49.7c0.2,4.5,0.4,1.7,0,7.8
		c26.8-40.4-41.5-18.1-66.3,5c0,0,9.1-19.2,32-30.9c0,0-51-39.3-112.1,0c19.9,10.2,27.9,22.9,32.2,30.9c-25.1-23.3-93.3-45.4-66.5-5
		c-0.4-6.3-0.2-3.2,0-7.8c10.2,25.1-5.4,49.7-5.4,49.7s0.4-3.9,0-6.9c-17.7,19.4,7.6,24.4,22.5,37.6c10.2,9.7,3,49,3.5,59.4
		c3.2,3.7,23.5,3.9,23.5,3.9s9.7-27.9,18.4-43.8c0.4,15.1-13.4,51.8-13.4,51.8h81.9"/>
	<path class="st1" d="M149.9,237.4c-21.8,0-35.2-1.1-42.8,0.4c-5,1.1-8.2,5.8-7.8,10.8c2.4,24.4,24.4,44.5,51,44.5h0.6
		c26.8,0,48.6-20.1,51-44.5c0.4-5-2.8-9.7-7.8-10.8c-7.6-1.7-21-0.4-42.8-0.4H149.9z"/>
	<path class="st2" d="M118.6,267.6l-8.2-9.7c-2.6-3.2,0.2-7.3,5-7.3H132c4.8,0,7.6,4.3,5,7.3l-8.4,9.7
		C126.2,270.4,121,270.4,118.6,267.6z"/>
	<path class="st2" d="M172.6,267.6l-8.2-9.7c-2.6-3.2,0.2-7.3,5-7.3H186c4.8,0,7.6,4.3,5,7.3l-8.4,9.7
		C180.2,270.4,175,270.4,172.6,267.6z"/>
	<path class="st3" d="M99.2,230.2c0,0-35.2,0.4-44.1-27c-14,50.1,36.7,52.7,36.7,52.7s-2.6-5.8-1.3-12.5c0.2-0.6,0.4-1.5,0.6-2.2
		C94,235.6,99.2,230.2,99.2,230.2z"/>
	<path class="st3" d="M202.2,230.2c0,0,35.2,0.4,44.1-27c14,50.1-36.7,52.7-36.7,52.7s2.6-5.8,1.3-12.5c-0.2-0.6-0.4-1.5-0.6-2.2
		C207.4,235.6,202.2,230.2,202.2,230.2z"/>
	<path class="st0" d="M134.2,100.4c0,0,6.5,4.8,15.8,4.8c8.6,0,15.8-4.8,15.8-4.8s-7.8,10.4-15.8,10.4S134.2,100.4,134.2,100.4z"/>
	<path class="st0" d="M69.2,101.9c44.3-7.8,46.7,35,68.9,24c1.9,10.2-12.3,11.7-12.3,11.7s-0.2,13.4-7.1,18.1
		c3.2-15.8,0.6-18.8-0.9-19.7c-1.3,5-36.5,16-39.3-23.1c-0.6-9.3-2.8,5.8-3,9.5c-6.5-9.1,0-16.6,0-16.6S79.1,102.8,69.2,101.9z"/>
	<path class="st0" d="M229.2,101.9c-44.3-7.8-46.7,35-68.9,24c-2.2,10.2,12.3,11.7,12.3,11.7s0.2,13.4,7.1,18.1
		c-3.2-15.8-0.6-18.8,0.9-19.7c1.3,5,36.5,16,39.3-23.1c0.6-9.3,2.8,5.8,3,9.5c6.7-9.3,0.2-16.6,0.2-16.6S219.3,102.8,229.2,101.9z"
		/>
	<path class="st3" d="M89.3,110.4c9.9,5.8,19.2,12.1,25.9,21.2c-6.3,4.5-15.1,4.3-21.6-0.2C88.6,127.6,86.4,118.8,89.3,110.4z"/>
	<path class="st3" d="M209.6,110.4c-9.9,5.8-19.2,12.1-25.9,21.2c6.3,4.5,15.1,4.3,21.6-0.2C210.2,127.6,212.1,118.8,209.6,110.4z"
		/>
	<path class="st1" d="M60.1,25.5l2.8,1.7c0.2,0.2,0.6,0.2,0.9,0.2c3-0.6,21.6-3,33.7,16.4c0.2,0.4,1.1,0.6,1.5,0.4l4.5-2.4
		c0.6-0.2,0.9-1.1,0.4-1.7c-3-5-17.3-25.9-43.6-16.8C59.2,23.5,59.2,24.8,60.1,25.5z"/>
	<path class="st4" d="M70.2,33.7c0,0,16.4-0.9,19.4,16.6l-6.5,7.1c0,0-9.1,0.6-8.4-8.9C75.4,39.1,70.2,33.7,70.2,33.7z"/>
	<path class="st1" d="M239.8,25.5l-2.8,1.7c-0.2,0.2-0.6,0.2-0.9,0.2c-3-0.6-21.6-3-33.7,16.4c-0.2,0.4-1.1,0.6-1.5,0.4l-4.5-2.4
		c-0.6-0.2-0.9-1.1-0.4-1.7c3-5,17.3-25.9,43.6-16.8C240.4,23.5,240.4,24.8,239.8,25.5z"/>
	<path class="st4" d="M229.4,33.7c0,0-16.4-0.9-19.4,16.6l6.5,7.1c0,0,9.1,0.6,8.4-8.9C224.2,39.1,229.4,33.7,229.4,33.7z"/>
	<path class="st1" d="M83,262.4c0,0,7.6,13.2,17.5,14.7c0,0-5.2-7.8-6.7-13.4C88.6,263.7,83,262.4,83,262.4z"/>
	<path class="st1" d="M216.9,262.4c0,0-7.6,13.2-17.5,14.7c0,0,5.2-7.8,6.7-13.4C211.1,263.7,216.9,262.4,216.9,262.4z"/>
</g>
</svg>
