<?xml version="1.0" encoding="utf-8"?>
<!-- Generator: Adobe Illustrator 20.1.0, SVG Export Plug-In . SVG Version: 6.00 Build 0)  -->
<svg version="1.1" id="Layer_1" xmlns="http://www.w3.org/2000/svg" xmlns:xlink="http://www.w3.org/1999/xlink" x="0px" y="0px"
	 viewBox="0 0 300 300" style="enable-background:new 0 0 300 300;" xml:space="preserve">
<style type="text/css">
	.st0{fill:#6762A6;}
	.st1{fill:#FFFFFF;}
</style>
<g>
	<path class="st0" d="M75,300.1V274c0-1.8-1.4-2.6-2.9-2.6c-3.2,0-7.2,0.8-10.8,2.4v26.4h-7.4v-48.5h7.4v16
		c3.5-1.3,7.7-2.4,11.8-2.4c6.7,0,9.2,4.1,9.2,9.7v25.1L75,300.1L75,300.1L75,300.1z M96,284.3c0.2,8.8,2,10.5,7.4,10.5
		c4.2,0,9-1.4,12.7-2.8l1.2,5.5c-3.9,1.8-8.7,3.5-14.4,3.5c-12.3,0-14.2-6.7-14.2-17.5c0-5.9,0.4-11.2,1.8-16.1
		c3.7-1.4,8.6-2.1,14.8-2.1c10.1,0,13.1,5.6,13.1,15.3v3.7L96,284.3L96,284.3L96,284.3z M105.3,271.4c-2.2,0-5.7,0.1-8.6,0.6
		c-0.3,1.5-0.7,3.5-0.8,7.2h15.3C111.3,274.1,110.3,271.4,105.3,271.4L105.3,271.4L105.3,271.4z M132.2,273.8v26.4h-7.4v-29.7
		c6.2-3.4,12.8-4.4,17-4.7v6.1C138.9,272.1,135.1,272.5,132.2,273.8L132.2,273.8L132.2,273.8z M161.3,301c-11,0-15.9-5.4-15.9-17.7
		c0-13.1,6.6-18,15.9-18c11,0,15.9,5.4,15.9,17.7C177.3,296,170.7,301,161.3,301L161.3,301L161.3,301z M161.3,271.4
		c-5.6,0-8.8,3.2-8.8,11.9c0,9.4,2.6,11.5,8.8,11.5c5.6,0,8.8-3.2,8.8-11.8C170.1,273.5,167.5,271.4,161.3,271.4L161.3,271.4
		L161.3,271.4z M212.8,300.1h-8.6c-2-5.4-4.8-10.9-9.2-15.7h-3.9v15.7h-7.4v-48.5h7.4v27.8h3.4c3.7-3.9,6.6-8.6,8.6-13.4h8.3
		c-2.8,5.7-6.4,10.7-10.5,14.8C205.8,287.1,209.6,293.6,212.8,300.1L212.8,300.1L212.8,300.1z M226.6,301c-6.7,0-9.2-4.1-9.2-9.7
		v-25.1h7.3v26.1c0,1.8,1.3,2.6,2.9,2.6c3.2,0,7.5-0.8,11.2-2.4v-26.3h7.4v29.6C237.4,300.4,230.7,301,226.6,301L226.6,301
		L226.6,301z"/>
	<g>
		<path class="st0" d="M223.3,239.3H76.6c-12.6,0-22.7-10.2-22.7-22.7V23.7C53.9,11.2,64,1,76.6,1h146.7c12.5,0,22.7,10.2,22.7,22.7
			v192.8C246.1,229.1,235.9,239.3,223.3,239.3L223.3,239.3L223.3,239.3z"/>
		<path class="st1" d="M174.3,206.5v-94.6c0,0,6.2-22.6-75.8,9.3c-0.1,0.4-0.1-87.5-0.1-87.5l26.8-0.2v56.3c0,0,75-29.5,75,22.4
			v94.3L174.3,206.5L174.3,206.5L174.3,206.5z M189.6,67.5h-28.4c10.2-12.5,19.5-33.9,19.5-33.9H210C210,33.6,205,47.6,189.6,67.5
			L189.6,67.5L189.6,67.5z M98.8,206.3v-53.9l26.9,26.9L98.8,206.3L98.8,206.3z"/>
	</g>
</g>
</svg>
