<?xml version="1.0" encoding="utf-8"?>
<!-- Generator: Adobe Illustrator 20.1.0, SVG Export Plug-In . SVG Version: 6.00 Build 0)  -->
<svg version="1.1" id="Layer_1" xmlns="http://www.w3.org/2000/svg" xmlns:xlink="http://www.w3.org/1999/xlink" x="0px" y="0px"
	 viewBox="0 0 300 300" style="enable-background:new 0 0 300 300;" xml:space="preserve">
<style type="text/css">
	.st0{fill:#E44D26;}
	.st1{fill:#F16529;}
	.st2{fill:#FFFFFF;}
	.st3{fill:#EBEBEB;}
</style>
<path class="st0" d="M236.9,275.9l-87,24.1l-86.8-24.1L43.7,59h212.5"/>
<path class="st1" d="M236.9,76.7H150v204.9l70.3-19.5"/>
<path class="st2" d="M216.6,103.3h-66.7v26.6h64.3 M211.8,157.2h-61.9V254l54.6-15.1 M149.9,183.8h32.8l-3.1,34.5l-29.7,8"/>
<path class="st3" d="M90.4,183.8H150v-26.6h-35.2l-2.4-27.2H150v-26.6H83.3 M95.4,238.9l54.6,15.1l0.1,0v-27.7l-0.1,0l-29.7-8
	l-1.9-21.2H91.6"/>
<path d="M89.4,0v13.4H77V0 M63.5,0v40.4H77V26.9h12.4v13.5h13.5V0 M108.8,0v13.4h0h11.9v27h13.5v-27h11.9V0 M183.5,0l-8.7,14.2
	L166.2,0 M152.1,0v40.4h13.2v-20l9.3,14.4h0.2l9.3-14.4v20h13.5V0 M204.3,0v40.4h32.5V27.1h-19V0"/>
</svg>
