<?xml version="1.0" encoding="utf-8"?>
<!-- Generator: Adobe Illustrator 20.1.0, SVG Export Plug-In . SVG Version: 6.00 Build 0)  -->
<svg version="1.1" id="Layer_1" xmlns="http://www.w3.org/2000/svg" xmlns:xlink="http://www.w3.org/1999/xlink" x="0px" y="0px"
	 viewBox="0 0 300 300" style="enable-background:new 0 0 300 300;" xml:space="preserve">
<style type="text/css">
	.st0{fill:#5382A1;}
	.st1{fill:#E76F00;}
</style>
<g>
	<path class="st0" d="M110.6,232c0,0-11.5,6.7,8.2,8.9c23.8,2.7,35.9,2.3,62.1-2.6c0,0,6.9,4.3,16.5,8.1
		C138.7,271.5,64.5,244.9,110.6,232"/>
	<path class="st0" d="M103.5,199.2c0,0-12.9,9.5,6.8,11.5c25.4,2.6,45.4,2.8,80.2-3.8c0,0,4.8,4.9,12.3,7.5
		C131.7,235.2,52.6,216,103.5,199.2"/>
	<path class="st1" d="M164,143.4c14.5,16.7-3.8,31.7-3.8,31.7s36.7-19,19.9-42.7c-15.8-22.2-27.8-33.2,37.6-71.1
		C217.6,61.3,114.9,86.9,164,143.4"/>
	<path class="st0" d="M241.6,256.3c0,0,8.5,7-9.3,12.4c-33.9,10.3-141.1,13.4-170.9,0.4c-10.7-4.7,9.4-11.1,15.7-12.5
		c6.6-1.4,10.3-1.2,10.3-1.2c-11.9-8.4-76.9,16.5-33,23.6C174.1,298.5,272.7,270.3,241.6,256.3"/>
	<path class="st0" d="M116.1,165.1c0,0-54.5,13-19.3,17.7c14.9,2,44.5,1.5,72.1-0.8c22.6-1.9,45.2-6,45.2-6s-8,3.4-13.7,7.3
		c-55.4,14.6-162.3,7.8-131.5-7.1C95,163.7,116.1,165.1,116.1,165.1"/>
	<path class="st0" d="M214,219.8c56.3-29.2,30.3-57.4,12.1-53.6c-4.5,0.9-6.4,1.7-6.4,1.7s1.7-2.6,4.8-3.7
		c35.9-12.6,63.6,37.3-11.6,57C212.8,221.3,213.7,220.5,214,219.8"/>
	<path class="st1" d="M180,0c0,0,31.2,31.2-29.6,79.1c-48.7,38.5-11.1,60.4,0,85.5c-28.4-25.7-49.3-48.2-35.3-69.2
		C135.7,64.5,192.6,49.5,180,0"/>
	<path class="st0" d="M121.7,299.1c54,3.5,137-1.9,139-27.5c0,0-3.8,9.7-44.6,17.4c-46.1,8.7-103,7.7-136.7,2.1
		C79.3,291.1,86.2,296.8,121.7,299.1"/>
</g>
</svg>
