<?xml version="1.0" encoding="utf-8"?>
<!-- Generator: Adobe Illustrator 20.1.0, SVG Export Plug-In . SVG Version: 6.00 Build 0)  -->
<svg version="1.1" id="Layer_1" xmlns="http://www.w3.org/2000/svg" xmlns:xlink="http://www.w3.org/1999/xlink" x="0px" y="0px"
	 viewBox="0 0 300 300" style="enable-background:new 0 0 300 300;" xml:space="preserve">
<style type="text/css">
	.st0{fill:#63A814;}
	.st1{fill:#8ACF17;}
	.st2{fill:#FFFFFF;}
	.st3{fill:#EBEBEB;}
</style>
<g>
	<path class="st0" d="M62.9,275.7L43.6,58.6h212.9l-19.3,217.1L150,300L62.9,275.7z"/>
	<path class="st1" d="M150,281.3l70.3-19.5l16.6-185.4H150V281.3z"/>
	<path id="J_1_" class="st2" d="M83.2,103.6l2.4,26.4h101.7l-7.6,88.5l-29.7,8l-29.7-8l-1.9-21.3H91.6l3.7,41.9l54.6,15.2l54.7-15.2
		l12.1-135.5H83.2z"/>
	<path class="st3" d="M149.9,226.5l-29.7-8l-1.9-21.3H91.6l3.7,41.9l54.7,15.2L149.9,226.5z M85.6,130H150v-26.4H83.2L85.6,130z"/>
	<path d="M130.8,0v25.7h-22.1V40h37.1V0H130.8z M152.9,0v14.9l16.4,12.3h-16.4V40h37.9V27.1l-18.3-14.2h18.3V0H152.9z"/>
</g>
</svg>
