<?xml version="1.0" encoding="utf-8"?>
<!-- Generator: Adobe Illustrator 20.1.0, SVG Export Plug-In . SVG Version: 6.00 Build 0)  -->
<svg version="1.1" id="Layer_1" xmlns="http://www.w3.org/2000/svg" xmlns:xlink="http://www.w3.org/1999/xlink" x="0px" y="0px"
	 viewBox="0 0 300 300" style="enable-background:new 0 0 300 300;" xml:space="preserve">
<style type="text/css">
	.st0{fill:#131B28;}
	.st1{fill:#0868AC;}
</style>
<g>
	<path class="st0" d="M128.3,139.7L128.3,139.7l-1.9,6.8L128.3,139.7L128.3,139.7z"/>
	<path class="st0" d="M138.2,154.5l-2.1,0L138.2,154.5z"/>
	<path class="st0" d="M137.6,164.7L137.6,164.7l-12.7,0L137.6,164.7L137.6,164.7z"/>
	<path class="st0" d="M140.3,154.5l-2.1,0L140.3,154.5z"/>
	<path class="st0" d="M138.7,163.8l2.2-8.4L138.7,163.8L138.7,163.8L138.7,163.8z"/>
	<path class="st0" d="M185.4,125l-4.1,19.3C181.3,144.3,185.4,125,185.4,125z"/>
	<path class="st0" d="M174.8,125l-3.1,14.5L174.8,125L174.8,125z"/>
	<path class="st0" d="M184.7,124.1h-8.8c-0.5,0-1,0.4-1.1,0.9l-3.1,14.5l-3.1,14.5c-0.1,0.5-0.6,0.9-1.1,0.9h-5.3h-0.9
		c-6.2,0-5.4-4.3-4.2-10.1c0-0.1,0-0.1,0-0.2l0.1-0.7c0,0,0-0.1,0-0.1l0.3-1.5l0.3-1.6c0.1-0.5,0.2-1.2,0.3-1.6l1.4-6.9l1.4-6.9
		c0.1-0.5-0.2-0.9-0.7-0.9h-9c-0.5,0-1,0.4-1.1,0.9l-1.9,9.2l-1.9,9.2c0,0,0,0,0,0l-0.2,0.9c-2.2,10.2-1.6,19.9,10.5,20.3
		c0.2,0,0.4,0,0.4,0h19.1c0.5,0,1-0.4,1.1-0.9l4.1-19.3l4.1-19.3C185.5,124.5,185.2,124.1,184.7,124.1L184.7,124.1z"/>
	<path class="st0" d="M219.8,154.9c0.5,0,0.8,0.4,0.7,0.9l-0.9,4.2"/>
	<path class="st0" d="M218.8,164.1l0.9-4.2L218.8,164.1C218.8,164.1,218.8,164.1,218.8,164.1L218.8,164.1z"/>
	<path class="st0" d="M217.7,165C217.7,165,217.7,165,217.7,165c-2.6,0-10.4,0.1-16.2,0.1C208.6,165,217.7,165,217.7,165L217.7,165z
		"/>
	<path class="st0" d="M196.3,149.5c0-0.5,0.5-1.2,1-1.2l-1.1,0C195.7,153.2,196.3,149.5,196.3,149.5L196.3,149.5z"/>
	<path class="st0" d="M202.3,165c-0.1,0-0.1,0-0.2,0C202.2,165,202.3,165,202.3,165z"/>
	<path class="st0" d="M219.8,154.9c0.5,0,0.8,0.4,0.7,0.9l-0.9,4.2l-0.1,0.7"/>
	<path class="st0" d="M206.5,165L206.5,165L206.5,165z"/>
	<path class="st0" d="M204.3,165h-0.1H204.3z"/>
	<path class="st0" d="M203.7,165c-0.1,0-0.1,0-0.2,0C203.5,165,203.6,165,203.7,165z"/>
	<path class="st0" d="M203,165h-0.2H203z"/>
	<path class="st0" d="M204.2,165c-0.2,0-0.4,0-0.5,0C203.9,165,204,165,204.2,165z"/>
	<path class="st0" d="M206.5,165c-0.7,0-1.4,0-2.1,0C205,165,205.7,165,206.5,165z"/>
	<path class="st0" d="M217.7,165L217.7,165c-1.9,0-6.6,0.1-11.3,0.1C211.2,165,215.8,165,217.7,165z"/>
	<path class="st0" d="M218.8,164.1l0.7-3.5L218.8,164.1C218.8,164.1,218.8,164.1,218.8,164.1L218.8,164.1z"/>
	<path class="st0" d="M203.5,165H203H203.5z"/>
	<path class="st0" d="M202.2,165h-0.6H202.2z"/>
	<path class="st0" d="M202.8,165h-0.5H202.8z"/>
	<path class="st0" d="M74.1,149.6l1.4-6.1l-1.6,6.9l-1.5,7.1l1.3-6.2C73.8,150.9,74,150.1,74.1,149.6L74.1,149.6z"/>
	<path class="st0" d="M90.5,124h-9.7c-0.5,0-1,0.4-1.1,0.9l-0.9,4l-0.9,4c-0.1,0.5,0.2,0.9,0.7,0.9h9.7c0.5,0,1-0.4,1.1-0.9l0.9-4
		l0.9-4v0C91.3,124.4,91,124,90.5,124L90.5,124z"/>
	<path class="st0" d="M88.4,137.5L88.4,137.5l-2.8,13.1L88.4,137.5z"/>
	<path class="st0" d="M60.3,180.9c0,0,4.9,0.1,8,0.1C65.9,181,62,180.9,60.3,180.9C60.3,180.9,60.3,180.9,60.3,180.9L60.3,180.9z"/>
	<path class="st0" d="M76.9,137.5l-1.4,6.1L76.9,137.5z"/>
	<path class="st0" d="M87.7,136.6h-9.7c-0.5,0-1,0.4-1.1,0.9l-1.4,6.1l-1.4,6.1c-0.1,0.5-0.3,1.3-0.4,1.7l-1.3,6.2l-1.3,6.2
		c-0.1,0.5-0.3,1.2-0.5,1.7c0,0-1.8,5.4-4.9,5.4c-0.1,0-0.3,0-0.4,0c-1.5,0-2.6,0-2.6,0h0c-0.5,0-1,0.4-1.1,0.8l-1,4.2l-1,4.2
		c-0.1,0.5,0.2,0.9,0.7,0.9c1.7,0,5.6,0.1,8,0.1c7.6,0,11.7-4.2,14.2-16.4l3-14l2.8-13.1C88.5,137,88.2,136.6,87.7,136.6L87.7,136.6
		z"/>
	<path class="st0" d="M226,164.6c-0.5,0-0.8-0.4-0.7-0.9l7.3-34.3"/>
	<path class="st0" d="M236.2,163.7l3-14.6L236.2,163.7z"/>
	<path class="st0" d="M225.4,164.1c-0.1-0.2,0-0.8,0.1-1.3l3.5-16.3l-3.7,17.2c-0.1,0.5,0.2,0.9,0.7,0.9h0.9
		C226.4,164.6,225.5,164.4,225.4,164.1L225.4,164.1z"/>
	<path class="st0" d="M235.6,164.4c-0.3,0.1-0.9,0.2-1.4,0.2h0.9c0.5,0,1-0.4,1.1-0.9l0.2-0.9C236.3,163.3,235.9,164.2,235.6,164.4
		L235.6,164.4z"/>
	<path class="st0" d="M237.7,156.4l1.3-6.5c0,0,0,0,0,0L237.7,156.4L237.7,156.4z"/>
	<path class="st0" d="M266.6,131.7l0.4,1.7c0.1,0.5-0.2,0.9-0.7,0.9"/>
	<path class="st0" d="M236.4,162.8l1.3-6.5L236.4,162.8z"/>
	<path class="st0" d="M266.2,130l0.4,1.7L266.2,130z"/>
	<path class="st0" d="M239,149.9c0.1-0.5,0.3-1.3,0.4-1.7l1.4-6.5l-1.6,7.4L239,149.9L239,149.9z"/>
	<path class="st0" d="M232.8,128.8c-0.1,0.5-0.2,1-0.3,1.4l-3.5,16.3l3.7-17.2L232.8,128.8L232.8,128.8z"/>
	<path class="st0" d="M267,133.3l-0.4-1.7l-0.4-1.7l-0.2-0.9c-0.8-3.1-3.1-4.8-8.2-4.8l-7.8,0l-7.2,0h-0.6h-7.5
		c-0.5,0-1,0.4-1.1,0.9h0l-0.4,1.7l-0.4,2l-0.1,0.6l-3.7,17.2l-3.5,16.3c-0.1,0.5-0.1,1.1-0.1,1.3c0.1,0.2,1,0.4,1.5,0.4h7.3
		c0.5,0,1.1-0.1,1.4-0.2c0.3-0.1,0.7-1.1,0.8-1.5l1.3-6.5l1.3-6.5c0,0,0,0,0,0l0.2-0.9l1.6-7.4l1.4-6.5c0.1-0.5,0.6-0.9,1.1-0.9
		l23.1,0C266.8,134.2,267.1,133.8,267,133.3L267,133.3z"/>
	<path class="st0" d="M296.7,118.3c-0.5,0-1.3,0-1.8,0h-7.4c-0.5,0-1.1,0.3-1.4,0.7l-16.3,23.9c-0.3,0.4-0.6,0.3-0.7-0.1l-1.2-5.3
		c-0.1-0.5-0.6-0.9-1.1-0.9h-10.5c-0.5,0-0.8,0.4-0.6,0.9l4.7,16.5c0.1,0.5,0.1,1.2,0,1.7l-2.1,8c-0.1,0.5,0.2,0.9,0.7,0.9h10.4
		c0.5,0,1-0.4,1.1-0.9l2.1-8c0.1-0.5,0.5-1.2,0.8-1.6l26.5-35.2c0.3-0.4,0.1-0.7-0.4-0.7L296.7,118.3L296.7,118.3z"/>
	<path class="st0" d="M213.2,138.9L213.2,138.9c-0.1,0.5-0.6,0.9-1,0.9h-13.3c-0.5,0-0.7-0.3-0.6-0.7c0,0,0,0,0,0c0,0,0,0,0,0
		c0,0,0,0,0,0c0,0,0-0.1,0.1-0.2c1.3-3.4,3.9-5.6,8.7-5.6C212.5,133.2,213.6,135.9,213.2,138.9L213.2,138.9z M209.3,123.5
		c-17.1,0-21.1,10.4-23.4,20.9c-2.3,10.7-2.1,20.7,15.6,20.7h0.6c0.1,0,0.1,0,0.2,0h0.5h0.2h0.5c0.1,0,0.1,0,0.2,0
		c0.2,0,0.4,0,0.5,0h0.1c0.7,0,1.4,0,2.1,0h0c4.7,0,9.4-0.1,11.3-0.1c0.5,0,1-0.4,1.1-0.9l0.7-3.5l0.1-0.7l0.9-4.2
		c0.1-0.5-0.2-0.9-0.7-0.9h-15.9c-6.3,0-8.2-1.7-7.5-6.6h25.4l0,0c0,0,0,0,0,0c0.4,0,0.8-0.3,0.9-0.7c0-0.1,0.1-0.1,0.1-0.2l0,0
		C226.6,133.1,225.5,123.5,209.3,123.5L209.3,123.5z"/>
	<path class="st0" d="M128.5,138.9l-0.2,0.9c0,0,0,0,0,0l-1.9,6.8l-1.9,6.8c-0.1,0.5-0.6,0.9-1.1,0.9h-10.2c-7.7,0-9.6-6-7.7-14.9
		c1.9-9.1,5.6-14.7,13.1-15.3C129,123.1,131,130.4,128.5,138.9L128.5,138.9z M135.5,153.7c0,0,4.8-11.6,5.9-18.4c1.5-9-3-22-20.4-22
		c-17.3,0-24.8,12.5-27.7,26c-2.9,13.6,0.9,25.6,18.1,25.5l13.6-0.1l12.7,0c0.5,0,1-0.4,1.1-0.9l2.2-8.4c0.1-0.5-0.2-0.9-0.7-0.9
		l-2.1,0l-2.1,0c-0.4,0-0.7-0.3-0.6-0.6C135.5,153.8,135.5,153.7,135.5,153.7L135.5,153.7z"/>
	<path class="st0" d="M221.1,145.9c0,0.3-0.3,0.6-0.6,0.6c-0.3,0-0.6-0.3-0.6-0.6c0-0.3,0.3-0.6,0.6-0.6
		C220.9,145.3,221.1,145.5,221.1,145.9z"/>
	<path class="st1" d="M3.4,130.7c-4.8,6.9-4.2,15.8-0.5,23.1c0.1,0.2,0.2,0.3,0.3,0.5c0.1,0.1,0.1,0.2,0.2,0.3
		c0,0.1,0.1,0.1,0.1,0.2c0.1,0.1,0.1,0.2,0.2,0.3c0.1,0.2,0.2,0.4,0.3,0.6c0.1,0.1,0.1,0.2,0.2,0.3c0.1,0.2,0.3,0.4,0.4,0.6
		c0.1,0.1,0.1,0.2,0.2,0.3c0.2,0.3,0.4,0.6,0.6,0.8c0,0,0,0,0,0c0,0,0.1,0.1,0.1,0.1c0.2,0.2,0.4,0.5,0.5,0.7
		c0.1,0.1,0.1,0.2,0.2,0.3c0.2,0.2,0.3,0.4,0.5,0.6c0.1,0.1,0.1,0.2,0.2,0.2c0.2,0.3,0.5,0.5,0.7,0.8c0,0,0,0,0,0c0,0,0,0,0,0
		c0.2,0.2,0.5,0.5,0.7,0.7c0.1,0.1,0.1,0.2,0.2,0.2c0.2,0.2,0.4,0.4,0.6,0.5c0.1,0.1,0.2,0.1,0.2,0.2c0.3,0.2,0.5,0.5,0.8,0.7
		c0,0,0,0,0,0c0,0,0.1,0.1,0.1,0.1c0.2,0.2,0.5,0.4,0.7,0.6c0.1,0.1,0.2,0.2,0.3,0.2c0.2,0.2,0.4,0.3,0.6,0.5
		c0.1,0.1,0.2,0.2,0.3,0.2c0.2,0.2,0.4,0.3,0.6,0.5c0.1,0.1,0.2,0.1,0.2,0.2c0,0,0,0,0.1,0c0.2,0.1,0.4,0.3,0.6,0.4
		c0.1,0.1,0.2,0.1,0.3,0.2c0.3,0.2,0.7,0.4,1,0.6c0.1,0.1,0.2,0.1,0.3,0.2c0.2,0.1,0.5,0.3,0.7,0.4c0.1,0.1,0.3,0.1,0.4,0.2
		c0.2,0.1,0.4,0.2,0.5,0.3c0,0,0.1,0,0.1,0.1c0.1,0,0.1,0.1,0.2,0.1c0.3,0.1,0.6,0.3,0.8,0.4c0.1,0,0.1,0.1,0.2,0.1
		c0.3,0.1,0.7,0.3,1,0.4c0.1,0,0.2,0.1,0.2,0.1c0.3,0.1,0.6,0.2,0.9,0.3c0,0,0.1,0,0.1,0c0.3,0.1,0.7,0.2,1,0.3
		c0.1,0,0.2,0.1,0.2,0.1c0.4,0.1,0.7,0.2,1.1,0.3c23.1,4.2,29.8-13.9,29.8-13.9c-5.6,7.3-15.6,9.3-25.1,7.1
		c-0.4-0.1-0.7-0.2-1.1-0.3c-0.1,0-0.2-0.1-0.3-0.1c-0.3-0.1-0.7-0.2-1-0.3c0,0-0.1,0-0.1-0.1c-0.3-0.1-0.6-0.2-0.9-0.3
		c-0.1,0-0.2-0.1-0.3-0.1c-0.3-0.1-0.6-0.3-1-0.4c-0.1,0-0.1-0.1-0.2-0.1c-0.3-0.1-0.5-0.3-0.8-0.4c-0.1,0-0.2-0.1-0.2-0.1
		c-0.2-0.1-0.4-0.2-0.6-0.3c-0.1-0.1-0.3-0.1-0.4-0.2c-0.3-0.1-0.5-0.3-0.8-0.4c-0.1,0-0.2-0.1-0.3-0.1c-0.3-0.2-0.7-0.4-1-0.6
		c-0.1-0.1-0.2-0.1-0.3-0.2c-0.2-0.2-0.5-0.3-0.7-0.5c-0.1-0.1-0.2-0.1-0.2-0.2c-0.2-0.2-0.4-0.3-0.7-0.5c-0.1-0.1-0.2-0.1-0.3-0.2
		c-0.2-0.2-0.4-0.3-0.6-0.5c-0.1-0.1-0.2-0.1-0.3-0.2c-0.3-0.2-0.5-0.4-0.7-0.6c0,0-0.1,0-0.1-0.1c-0.3-0.2-0.5-0.5-0.8-0.7
		c-0.1-0.1-0.1-0.1-0.2-0.2c-0.2-0.2-0.4-0.4-0.6-0.6c-0.1-0.1-0.1-0.1-0.2-0.2c-0.2-0.2-0.5-0.5-0.7-0.7c0,0,0,0,0,0
		c-0.2-0.3-0.5-0.5-0.7-0.8c-0.1-0.1-0.1-0.1-0.2-0.2c-0.2-0.2-0.3-0.4-0.5-0.6c-0.1-0.1-0.1-0.2-0.2-0.2c-0.2-0.3-0.4-0.5-0.6-0.8
		C4.8,144,2.9,134.1,7.2,126"/>
	<path class="st1" d="M18.2,125c-3.5,5-3.3,11.6-0.6,16.9c0.5,0.9,1,1.7,1.5,2.6c0.5,0.7,1.1,1.6,1.8,2.2c0.2,0.3,0.5,0.5,0.8,0.8
		c0.1,0.1,0.1,0.1,0.2,0.2c0.3,0.3,0.5,0.5,0.8,0.7c0,0,0,0,0,0c0,0,0,0,0,0c0.3,0.3,0.6,0.5,0.9,0.8c0.1,0.1,0.1,0.1,0.2,0.2
		c0.3,0.2,0.6,0.5,1,0.7c0,0,0,0,0,0c0.1,0.1,0.3,0.2,0.4,0.3c0.1,0,0.1,0.1,0.2,0.1c0.2,0.2,0.5,0.3,0.7,0.4c0,0,0.1,0,0.1,0.1
		c0.2,0.1,0.4,0.2,0.6,0.4c0.1,0,0.1,0.1,0.2,0.1c0.1,0.1,0.3,0.2,0.4,0.2c0,0,0,0,0.1,0c0.3,0.1,0.6,0.3,0.9,0.4
		c0.1,0,0.1,0.1,0.2,0.1c0.3,0.1,0.5,0.2,0.8,0.3c0.1,0,0.2,0.1,0.3,0.1c0.2,0.1,0.5,0.2,0.7,0.2c0.1,0,0.2,0.1,0.3,0.1
		c0.3,0.1,0.7,0.2,1,0.3c17.8,3,21.9-10.8,21.9-10.8c-3.7,5.3-10.9,7.9-18.6,5.9c-0.3-0.1-0.7-0.2-1-0.3c-0.1,0-0.2-0.1-0.3-0.1
		c-0.2-0.1-0.5-0.2-0.7-0.2c-0.1,0-0.2-0.1-0.3-0.1c-0.3-0.1-0.5-0.2-0.8-0.3c-0.1,0-0.1-0.1-0.2-0.1c-0.3-0.1-0.6-0.3-0.9-0.4
		c-0.2-0.1-0.3-0.2-0.5-0.2c-0.1,0-0.2-0.1-0.3-0.1c-0.2-0.1-0.4-0.2-0.6-0.3c0,0-0.1-0.1-0.1-0.1c-0.2-0.1-0.5-0.3-0.7-0.4
		c-0.1,0-0.1-0.1-0.2-0.1c-0.2-0.1-0.3-0.2-0.5-0.3c-0.3-0.2-0.6-0.5-1-0.7c-0.1-0.1-0.1-0.1-0.2-0.2c-3.4-2.7-6-6.3-7.3-10.4
		c-1.3-4.3-1-9,1.3-12.9"/>
	<path class="st1" d="M30.7,120.6c-2,3-2.2,6.7-0.8,10c1.5,3.5,4.5,6.3,8.1,7.6c0.1,0.1,0.3,0.1,0.4,0.2c0.1,0,0.1,0,0.2,0.1
		c0.2,0.1,0.4,0.1,0.6,0.2c9.8,1.9,12.5-5.1,13.2-6.1c-2.3,3.4-6.3,4.2-11.1,3c-0.4-0.1-0.8-0.2-1.2-0.4c-0.5-0.2-0.9-0.4-1.4-0.6
		c-0.9-0.4-1.7-0.9-2.4-1.5c-4.3-3.3-7-9.5-4.2-14.6"/>
	<path class="st1" d="M141.6,179l-2.8,6.5h-3.1l0.3-5.9l-2.3,5.9h-3l-0.1-6.5l0.3-1.6h2.1l-0.4,6.4l2.4-6.4h3l-0.2,6.5l2.4-6.5h1.9
		L141.6,179L141.6,179z"/>
	<path class="st1" d="M146.6,180.9c0.3-1.3,0.2-1.5-0.5-1.5h-1l-0.6,3l-1,3.1h-1.8l1.5-7l0.2-1h1.7l0.2,0.5c0,0,1-0.6,1.9-0.6
		c2,0,1.9,1.5,1.4,3.6L146.6,180.9L146.6,180.9z"/>
	<path class="st1" d="M152.5,176.4c-0.8,0-1.3-0.2-1.1-1.2c0.2-1,0.8-1.2,1.6-1.2c0.8,0,1.3,0.2,1.1,1.2
		C153.9,176.1,153.3,176.4,152.5,176.4L152.5,176.4z M151.6,185.5h-1.8l0.4-3.2l0.6-2.9l-1.3-0.3l0.4-1.7h3.4L151.6,185.5
		L151.6,185.5z"/>
	<path class="st1" d="M159.5,179.1l-2.3,0.3l-0.7,3.1c-0.2,0.8-0.2,1.1,0.6,1.1h1.5l-0.3,1.6c0,0-1.4,0.4-2,0.4
		c-2.3,0-2.3-1.3-1.9-3.2l0.6-3l-1.3-0.3l0.4-1.7h1.3l0.7-2h1.8l-0.4,2h2.2L159.5,179.1L159.5,179.1z"/>
	<path class="st1" d="M164.2,179.2c-1.1,0-1.6,0.6-1.8,1.5l3-0.3C165.6,179.8,165.4,179.2,164.2,179.2L164.2,179.2z M162.1,182.2
		c-0.1,1,0.2,1.3,1.5,1.3h3.2l-0.3,1.5c0,0-1.9,0.5-3.3,0.5c-3.5,0-3.6-2-3.1-4.1c0.5-2.1,1.3-4.2,4.7-4.2c3.3,0,3.5,2,2.6,4.9
		L162.1,182.2L162.1,182.2z"/>
	<path class="st1" d="M174.5,185.5h-1.8l0.4-3.2l1.3-6l-1.3-0.3l0.4-1.7h3.4L174.5,185.5L174.5,185.5z"/>
	<path class="st1" d="M181.1,179.2c-1.1,0-1.6,0.6-1.8,1.5l3-0.3C182.4,179.8,182.3,179.2,181.1,179.2L181.1,179.2z M179,182.2
		c-0.1,1,0.2,1.3,1.5,1.3h3.2l-0.3,1.5c0,0-1.9,0.5-3.3,0.5c-3.5,0-3.6-2-3.1-4.1c0.5-2.1,1.3-4.2,4.7-4.2c3.3,0,3.4,2,2.6,4.9
		L179,182.2L179,182.2z"/>
	<path class="st1" d="M192.5,179.3c0,0-2.3,0-2.9,0c-1.3,0-1.5,0.4-1.6,0.8l-0.1,0.4l4.3,0.3c0,0,0,1.4-0.2,2.1
		c-0.3,1.3-1.6,2.6-4,2.6c-1.2,0-3.1-0.5-3.1-0.5l0.3-1.6h2.9c1.3,0,1.5-0.4,1.6-0.7l0.1-0.5l-4.2-0.3c0,0-0.2-1,0.1-2.1
		c0.3-1.4,1.6-2.6,4-2.6c1.2,0,3.1,0.4,3.1,0.4L192.5,179.3L192.5,179.3z"/>
	<path class="st1" d="M200.4,179.3c0,0-2.3,0-2.9,0c-1.3,0-1.5,0.4-1.6,0.8l-0.1,0.4l4.3,0.3c0,0,0,1.4-0.2,2.1
		c-0.3,1.3-1.6,2.6-4,2.6c-1.2,0-3.1-0.5-3.1-0.5l0.3-1.6h2.9c1.3,0,1.5-0.4,1.6-0.7l0.1-0.5l-4.2-0.3c0,0-0.2-1,0.1-2.1
		c0.3-1.4,1.6-2.6,4-2.6c1.2,0,3.1,0.4,3.1,0.4L200.4,179.3L200.4,179.3z"/>
	<path class="st1" d="M202.9,186.7h-1.6l0.1-1.2c-0.6,0-0.9-0.5-0.7-1.1c0.2-1,0.8-1.2,1.6-1.2c0.8,0,1.3,0.2,1.1,1.2L202.9,186.7
		L202.9,186.7z"/>
	<path class="st1" d="M213.4,179.4c-1.2,0-1.6,0.7-1.9,2c-0.3,1.3-0.2,2.1,1,2.1h1.6l0.9-4.1H213.4z M216.1,184.4l-0.2,1l-1.7,0
		l-0.2-0.5c0,0-1.5,0.6-2.4,0.6c-2.5,0-2.6-2.1-2.2-4.2c0.5-2.1,1.4-4.1,3.9-4.1c0.9,0,2.1,0.5,2.1,0.5l1-3.4h1.8L216.1,184.4
		L216.1,184.4z"/>
	<path class="st1" d="M222.7,179.3c-1.5,0-2,0.9-2.3,2.1c-0.3,1.3-0.1,2.1,1.4,2.1c1.6,0,2.1-0.8,2.3-2.1
		C224.3,180.2,224.3,179.3,222.7,179.3L222.7,179.3z M221.3,185.6c-3.3,0-3.5-2-3.1-4.1c0.5-2.1,1.6-4.1,4.8-4.1
		c3.2,0,3.5,2,3.1,4.1C225.7,183.6,224.6,185.6,221.3,185.6z"/>
	<path class="st1" d="M239.8,185.5l0.4-3.1l0.2-0.9c0.3-1.2,0.4-2-0.8-2h-1c0,0.6-0.1,1.3-0.2,2l-0.8,4h-1.8l0.4-3.1l0.2-0.9
		c0.3-1.2,0.4-2-0.8-2h-0.8l-1.3,6h-2.1l1.7-8.1h1.7l0.3,0.5c0,0,1.1-0.6,2-0.6c0.7,0,1.2,0.3,1.4,0.7c0.4-0.2,1.5-0.7,2.3-0.7
		c2.5,0,2.4,2,2,4.1l-0.8,4L239.8,185.5L239.8,185.5z"/>
	<path class="st1" d="M248.2,179.3c-1.5,0-2,0.9-2.3,2.1c-0.3,1.3-0.1,2.1,1.4,2.1c1.6,0,2.1-0.8,2.3-2.1
		C249.8,180.2,249.8,179.3,248.2,179.3z M246.8,185.6c-3.3,0-3.5-2-3.1-4.1c0.5-2.1,1.6-4.1,4.8-4.1c3.2,0,3.5,2,3.1,4.1
		C251.2,183.6,250.1,185.6,246.8,185.6z"/>
	<path class="st1" d="M257.1,180.9c0.3-1.3,0.2-1.5-0.5-1.5h-1l-0.6,3l-1,3.1h-1.8l1.5-7l0.2-1h1.7l0.2,0.5c0,0,1-0.6,1.9-0.6
		c2,0,1.9,1.5,1.4,3.6L257.1,180.9L257.1,180.9z"/>
	<path class="st1" d="M264.2,179.2c-1.1,0-1.6,0.6-1.8,1.5l3-0.3C265.5,179.8,265.4,179.2,264.2,179.2L264.2,179.2z M262.1,182.2
		c-0.1,1,0.2,1.3,1.5,1.3h3.2l-0.3,1.5c0,0-1.9,0.5-3.3,0.5c-3.5,0-3.6-2-3.1-4.1c0.5-2.1,1.3-4.2,4.7-4.2c3.3,0,3.4,2,2.6,4.9
		L262.1,182.2L262.1,182.2z"/>
	<path class="st1" d="M269.1,185.6c-0.8,0-1.3-0.2-1.1-1.2c0.2-1,0.8-1.2,1.6-1.2c0.8,0,1.3,0.2,1.1,1.2
		C270.5,185.3,269.8,185.6,269.1,185.6z"/>
</g>
</svg>
