<?xml version="1.0" encoding="utf-8"?>
<!-- Generator: Adobe Illustrator 20.1.0, SVG Export Plug-In . SVG Version: 6.00 Build 0)  -->
<svg version="1.1" id="Layer_1" xmlns="http://www.w3.org/2000/svg" xmlns:xlink="http://www.w3.org/1999/xlink" x="0px" y="0px"
	 viewBox="0 0 300 300" style="enable-background:new 0 0 300 300;" xml:space="preserve">
<style type="text/css">
	.st0{fill:#D3C7AD;}
	.st1{fill:#74B944;}
	.st2{fill:#46A046;}
</style>
<title>mongodb</title>
<g>
	<path class="st0" d="M164.2,257c-0.3,0.2-7.7-31.3-8-47.1c-4.2,52.1-15.2,47.3-15.2,47.3c10.9,15.9,5.7,42.8,5.7,42.8H157
		c0,0-1.9-22.3,0.4-32.5C158.1,264.4,162.4,259.2,164.2,257"/>
	<path class="st1" d="M152.3,266.4c0,0-73.3-48.6-69.5-127.3C86.5,60.4,147.7,6.1,148.1,0c4.1,8.8,27.2,130.5,27.6,144.7
		C177.4,200.3,152.3,266.4,152.3,266.4"/>
	<path class="st2" d="M214.5,117.6C198.7,48.4,148.3,0,148.3,0v0.1c19.3,81,3.9,265.1,3.9,265.1S231,212.7,214.5,117.6"/>
</g>
</svg>
