<?xml version="1.0" encoding="utf-8"?>
<!-- Generator: Adobe Illustrator 20.1.0, SVG Export Plug-In . SVG Version: 6.00 Build 0)  -->
<svg version="1.1"
	 id="svg2" xmlns:cc="http://creativecommons.org/ns#" xmlns:dc="http://purl.org/dc/elements/1.1/" xmlns:rdf="http://www.w3.org/1999/02/22-rdf-syntax-ns#" xmlns:svg="http://www.w3.org/2000/svg"
	 xmlns="http://www.w3.org/2000/svg" xmlns:xlink="http://www.w3.org/1999/xlink" x="0px" y="0px" viewBox="0 0 300 300"
	 style="enable-background:new 0 0 300 300;" xml:space="preserve">
<style type="text/css">
	.st0{fill:#5D87A1;}
	.st1{fill:#F8981D;}
</style>
<g id="g16">
	<path id="path24" class="st0" d="M72.1,233.7H60.6c-0.4-19.5-1.5-37.9-3.4-55.1h-0.1l-17.6,55.1h-8.8l-17.5-55.1H13
		c-1.3,16.5-2.1,34.9-2.5,55.1H0c0.7-24.6,2.4-47.6,5.1-69.2h14.3l16.7,50.8h0.1l16.8-50.8h13.7C69.8,189.8,71.6,212.8,72.1,233.7"
		/>
	<path id="path26" class="st0" d="M122.3,182.7c-4.7,25.6-10.9,44.2-18.6,55.8c-6,8.9-12.6,13.4-19.8,13.4c-1.9,0-4.3-0.6-7.1-1.7
		V244c1.4,0.2,3,0.3,4.8,0.3c3.3,0,6-0.9,8.1-2.8c2.5-2.2,3.7-4.8,3.7-7.6c0-1.9-1-5.8-2.9-11.8l-12.7-39.4h11.4l9.1,29.5
		c2,6.7,2.9,11.4,2.6,14c5-13.3,8.5-27.8,10.5-43.5L122.3,182.7"/>
	<path id="path28" class="st1" d="M276.4,233.7h-32.9v-69.2h11.1v60.7h21.8V233.7"/>
	<path id="path30" class="st1" d="M193.7,219.9c-2.8-4.5-4.2-11.7-4.2-21.7c0-17.4,5.3-26.1,15.9-26.1c5.5,0,9.6,2.1,12.2,6.2
		c2.8,4.5,4.2,11.7,4.2,21.5c0,17.6-5.3,26.3-15.9,26.3C200.4,226.2,196.3,224.1,193.7,219.9 M234.9,235.4l-12.7-6.3
		c1.1-0.9,2.2-1.9,3.2-3.1c5.4-6.3,8.1-15.7,8.1-28.2c0-22.9-9-34.3-26.9-34.3c-8.8,0-15.7,2.9-20.6,8.7c-5.4,6.4-8.1,15.7-8.1,28.1
		c0,12.2,2.4,21.1,7.2,26.7c4.4,5.1,11,7.7,19.8,7.7c3.3,0,6.3-0.4,9.1-1.2l16.6,9.6L234.9,235.4"/>
	<path id="path32" class="st1" d="M173,214.6c0,5.9-2.2,10.7-6.5,14.4c-4.3,3.8-10.1,5.6-17.3,5.6c-6.8,0-13.3-2.2-19.7-6.5l3-5.9
		c5.5,2.7,10.4,4.1,14.9,4.1c4.2,0,7.4-0.9,9.8-2.8c2.4-1.8,3.8-4.4,3.8-7.7c0-4.1-2.9-7.6-8.1-10.6c-4.9-2.7-14.5-8.2-14.5-8.2
		c-5.3-3.8-7.9-7.9-7.9-14.7c0-5.6,2-10.1,5.9-13.6c3.9-3.5,9-5.2,15.2-5.2c6.4,0,12.3,1.7,17.5,5.1l-2.7,5.9
		c-4.5-1.9-8.9-2.9-13.3-2.9c-3.5,0-6.3,0.9-8.2,2.6c-1.9,1.7-3.1,3.9-3.1,6.6c0,4.1,2.9,7.6,8.3,10.7c4.9,2.7,14.8,8.3,14.8,8.3
		C170.3,203.8,173,207.9,173,214.6"/>
	<path id="path34" class="st0" d="M290.3,141.4c-6.7-0.2-11.9,0.5-16.2,2.3c-1.3,0.5-3.3,0.5-3.4,2.1c0.7,0.7,0.8,1.8,1.3,2.7
		c1,1.7,2.8,3.9,4.3,5.1c1.8,1.3,3.5,2.7,5.4,3.8c3.3,2,6.9,3.2,10.1,5.2c1.8,1.2,3.7,2.7,5.5,3.9c0.9,0.7,1.5,1.8,2.7,2.2v-0.3
		c-0.6-0.7-0.8-1.8-1.3-2.7c-0.8-0.8-1.7-1.6-2.5-2.4c-2.4-3.3-5.4-6.1-8.7-8.4c-2.7-1.8-8.5-4.4-9.6-7.4c0,0-0.1-0.1-0.2-0.2
		c1.8-0.2,4-0.8,5.8-1.3c2.8-0.7,5.4-0.6,8.4-1.3c1.3-0.3,2.7-0.8,4-1.2v-0.8c-1.5-1.5-2.6-3.5-4.2-4.9c-4.3-3.7-8.9-7.3-13.8-10.3
		c-2.6-1.7-5.9-2.8-8.7-4.2c-1-0.5-2.7-0.7-3.3-1.6c-1.5-1.8-2.3-4.3-3.4-6.4c-2.4-4.6-4.8-9.7-6.9-14.5c-1.5-3.3-2.4-6.5-4.3-9.5
		c-8.6-14.2-18-22.8-32.3-31.3c-3.1-1.8-6.8-2.5-10.7-3.4c-2.1-0.1-4.2-0.2-6.3-0.3c-1.3-0.6-2.7-2.2-3.8-2.9
		c-4.8-3-17-9.5-20.6-0.9c-2.3,5.4,3.3,10.8,5.3,13.5c1.4,1.9,3.3,4.1,4.3,6.3c0.6,1.4,0.8,2.9,1.3,4.4c1.3,3.7,2.6,7.8,4.3,11.2
		c0.9,1.8,1.9,3.6,3.1,5.2c0.7,0.9,1.8,1.3,2.1,2.8c-1.2,1.7-1.3,4.2-1.9,6.3c-3,9.4-1.8,21.1,2.4,28.1c1.3,2.1,4.5,6.7,8.8,4.9
		c3.8-1.5,2.9-6.3,4-10.4c0.2-1,0.1-1.7,0.6-2.3v0.2c1.2,2.3,2.3,4.6,3.4,6.9c2.6,4.1,7.1,8.4,10.9,11.2c2,1.5,3.6,4.1,6.1,5v-0.3
		h-0.2c-0.5-0.7-1.3-1.1-1.9-1.7c-1.5-1.5-3.2-3.3-4.3-5c-3.5-4.7-6.6-9.9-9.4-15.2c-1.3-2.6-2.5-5.4-3.6-8c-0.5-1-0.5-2.5-1.3-3
		c-1.3,1.8-3.1,3.4-4,5.7c-1.6,3.6-1.8,8-2.3,12.6c-0.3,0.1-0.2,0-0.3,0.2c-2.7-0.7-3.6-3.4-4.6-5.8c-2.5-5.9-2.9-15.5-0.8-22.3
		c0.6-1.8,3.1-7.3,2.1-8.9c-0.5-1.6-2.2-2.5-3.1-3.8c-1.1-1.6-2.3-3.6-3-5.3c-2-4.7-3-9.9-5.2-14.5c-1-2.2-2.8-4.4-4.2-6.4
		c-1.6-2.3-3.3-3.8-4.6-6.5c-0.4-0.9-1-2.4-0.3-3.4c0.2-0.7,0.5-0.9,1.2-1.1c1.1-0.9,4.2,0.2,5.3,0.7c3.1,1.2,5.7,2.4,8.3,4.2
		c1.2,0.8,2.4,2.4,3.9,2.8h1.8c2.7,0.6,5.7,0.2,8.2,0.9c4.4,1.4,8.4,3.5,12,5.8c10.9,6.9,20,16.8,26.1,28.6c1,1.9,1.4,3.7,2.3,5.7
		c1.8,4.1,3.9,8.3,5.7,12.3c1.8,3.9,3.4,7.9,5.9,11.2c1.2,1.8,6.3,2.7,8.5,3.6c1.7,0.7,4.3,1.4,5.8,2.3c2.8,1.8,5.7,3.8,8.4,5.7
		C285.9,137.7,290.1,139.7,290.3,141.4"/>
	<path id="path36" class="st0" d="M205.1,68.8c-1.4,0-2.4,0.2-3.4,0.4v0.2h0.2c0.7,1.3,1.8,2.3,2.7,3.4c0.7,1.3,1.3,2.7,1.9,4
		c0.1-0.1,0.2-0.2,0.2-0.2c1.2-0.8,1.8-2.2,1.8-4.2c-0.5-0.6-0.6-1.2-1-1.8C206.8,69.9,205.7,69.5,205.1,68.8"/>
	<path id="path38" class="st1" d="M284.3,233.7h1.8v-7h2.4v-1.4h-6.7v1.4h2.5L284.3,233.7z M298.3,233.7h1.7v-8.5h-2.6l-2.1,5.8
		l-2.3-5.8h-2.5v8.5h1.6v-6.4h0.1l2.4,6.4h1.2l2.4-6.4V233.7"/>
</g>
</svg>
