<?xml version="1.0" encoding="utf-8"?>
<!-- Generator: Adobe Illustrator 20.1.0, SVG Export Plug-In . SVG Version: 6.00 Build 0)  -->
<svg version="1.1" id="Layer_1" xmlns="http://www.w3.org/2000/svg" xmlns:xlink="http://www.w3.org/1999/xlink" x="0px" y="0px"
	 viewBox="0 0 300 300" style="enable-background:new 0 0 300 300;" xml:space="preserve">
<style type="text/css">
	.st0{fill:#3C5AFD;}
</style>
<path class="st0" d="M278,22c14.1,14.1,21.4,31.8,22,53v150c-0.5,21.2-7.9,38.9-22,53c-14.1,14.1-31.8,21.4-53,22H75
	c-21.2-0.5-38.9-7.9-53-22C7.8,263.9,0.5,246.2,0,225V75c0.5-21.2,7.9-38.9,22-53C36.1,7.9,53.7,0.5,75,0h150
	C246.2,0.5,263.9,7.9,278,22L278,22z M257.3,142.7c-4.7-4.7-7.2-10.6-7.4-17.7V75c-0.2-7.1-2.6-13-7.3-17.7
	c-4.7-4.7-10.6-7.1-17.7-7.3h-25v125L100,50H75c-7.1,0.2-13,2.6-17.7,7.3C52.6,62,50.2,67.9,50,75v50c-0.2,7.1-2.6,13-7.4,17.7
	c-4.7,4.7-10.6,7.1-17.7,7.3c7.1,0.2,13,2.6,17.7,7.3c4.7,4.7,7.2,10.6,7.4,17.7v50c0.2,7.1,2.6,13,7.3,17.7
	c4.7,4.7,10.6,7.1,17.7,7.3h25V125l100,125h25c7.1-0.2,13-2.6,17.7-7.3c4.7-4.7,7.1-10.6,7.3-17.7v-50c0.2-7.1,2.6-13,7.4-17.7
	c4.7-4.7,10.6-7.1,17.7-7.3C267.9,149.8,262,147.4,257.3,142.7L257.3,142.7z"/>
</svg>
