<?xml version="1.0" encoding="utf-8"?>
<!-- Generator: Adobe Illustrator 20.1.0, SVG Export Plug-In . SVG Version: 6.00 Build 0)  -->
<svg version="1.1" id="Layer_1" xmlns="http://www.w3.org/2000/svg" xmlns:xlink="http://www.w3.org/1999/xlink" x="0px" y="0px"
	 viewBox="0 0 300 300" style="enable-background:new 0 0 300 300;" xml:space="preserve">
<style type="text/css">
	.st0{fill:url(#SVGID_1_);}
	.st1{fill:#5A69AA;}
	.st2{fill:#FFFFFF;}
	.st3{fill:#222222;}
</style>
<g>
	
		<linearGradient id="SVGID_1_" gradientUnits="userSpaceOnUse" x1="116.454" y1="248.9384" x2="193.1677" y2="29.7566" gradientTransform="matrix(1 0 0 -1 0 302.9)">
		<stop  offset="0" style="stop-color:#FFFFFF"/>
		<stop  offset="0.2615" style="stop-color:#333D73"/>
		<stop  offset="1" style="stop-color:#191D2E"/>
	</linearGradient>
	<ellipse class="st0" cx="150.1" cy="149.9" rx="150" ry="79.6"/>
	<ellipse class="st1" cx="150.1" cy="149.9" rx="143.9" ry="73.5"/>
	<g>
		<path class="st2" d="M183.9,196.6c-2.9,0-2.2-2.2-2-2.9l15.7-79.1c0.2-1.3,1.3-2.2,2.7-2.2h32.1c11,0,19.3,3.1,24.2,9.2
			c7.4,9,5.2,21.1,4.9,22.2c-2.5,16.4-12.1,24.4-19.5,28c-8.1,4-15.5,4.3-15.9,4.3h-18.8l-4,18.6c-0.4,2.2-1.3,2.2-2.7,2.2
			C200.7,196.6,185.7,196.6,183.9,196.6z M221.4,158L221.4,158h0.2c2.5,0,14.6-0.7,16.8-14.1l0,0l0,0c0,0,1.6-6.5-1.6-10.3
			c-1.6-2-4.3-3.1-8.1-3.1h-12.6l-4.9,27.6H221.4z"/>
		<path class="st3" d="M205.7,173.9h20.2c0,0,28.9-0.4,33.4-30.7c0,0,6.1-29.1-27.4-29.1h-31.6l-16.1,80.5h16.8L205.7,173.9z
			 M240.4,144.1c-2.7,16.6-19.1,15.7-19.1,15.7h-11.2c-0.4,0-0.9-0.4-0.9-0.9l5.2-29.8c0-0.4,0.4-0.7,0.9-0.7H229
			C244.2,128.4,240.4,144.1,240.4,144.1z"/>
	</g>
	<path class="st2" d="M159,175.7l-0.7-0.7c-0.4-0.4-0.4-1.1-0.4-1.6l8.1-39.9c0.2-0.7,0-1.3-0.7-2c-0.4-0.4-0.9-0.4-1.3-0.4h-15.7
		c-0.7,3.4-2.5,11.7-4.3,20.4c-1.1,5.6-2.2,11-3.1,15.2c-0.4,2-0.9,3.8-1.1,4.9c-0.2,0.7-0.2,1.1-0.2,1.3c-0.2,0.7-0.4,2-2,2h-19.1
		c-1.1,0-2-1.1-1.8-2l15.7-80.7c0.2-0.9,1.1-1.6,2-1.6h18.2c0.4,0,0.9,0.2,1.3,0.4c0.7,0.4,0.9,1.3,0.9,2l-3.4,18.6h17.9
		c7.2,0,12.8,2.2,16.1,6.3c5.4,6.5,3.8,15.2,3.8,15.9l-7.4,41.7h-1.8H159z"/>
	<path class="st3" d="M134.1,93l-15.7,80.3H137l9.2-44.2c0-0.2,0.2-0.2,0.2-0.2h17.7c2.5,0,4.5,2.2,4,4.7l-7.8,40.1l0,0h20l0,0
		l6.7-39.9c0,0,3.6-19.7-17.9-20c-9.4,0-19.7,0-19.7,0l3.8-21.1l0,0L134.1,93L134.1,93z"/>
	<g>
		<path class="st2" d="M44.9,196.6c-2.9,0-2.2-2.2-2-2.9l15.7-79.1c0.2-1.3,1.3-2.2,2.7-2.2h32.1c11,0,19.3,3.1,24.2,9.2
			c7.4,9,5.2,21.1,4.9,22.2c-2.5,16.4-12.1,24.4-19.5,28c-8.1,4-15.5,4.3-15.9,4.3H68.2l-4,18.6c-0.4,2.2-1.3,2.2-2.7,2.2
			C61.7,196.6,46.7,196.6,44.9,196.6z M82.3,158L82.3,158h0.2c2.5,0,14.6-0.7,16.8-14.1l0,0l0,0c0,0,1.6-6.5-1.6-10.3
			c-1.6-2-4.3-3.1-8.1-3.1H77.2L72.2,158H82.3z"/>
		<path class="st3" d="M66.6,173.9h20.2c0,0,28.9-0.4,33.4-30.7c0,0,6.1-29.1-27.4-29.1H61.3l-16.1,80.5h16.8L66.6,173.9z
			 M101.4,144.1c-2.7,16.6-19.1,15.7-19.1,15.7H71.1c-0.4,0-0.9-0.4-0.9-0.9l5.2-29.8c0-0.4,0.4-0.7,0.9-0.7H90
			C105.4,128.4,101.4,144.1,101.4,144.1z"/>
	</g>
</g>
</svg>
