<?xml version="1.0" encoding="utf-8"?>
<!-- Generator: Adobe Illustrator 20.1.0, SVG Export Plug-In . SVG Version: 6.00 Build 0)  -->
<svg version="1.1" id="Layer_1" xmlns="http://www.w3.org/2000/svg" xmlns:xlink="http://www.w3.org/1999/xlink" x="0px" y="0px"
	 viewBox="0 0 300 300" style="enable-background:new 0 0 300 300;" xml:space="preserve">
<style type="text/css">
	.st0{fill:#303F9F;}
	.st1{fill:#3F51B5;}
	.st2{fill:#7986CB;}
	.st3{fill:#FF4081;}
	.st4{fill:#536DFE;}
	.st5{fill:#FFFFFF;fill-opacity:0.2;}
	.st6{fill:#FFFFFF;fill-opacity:0.1;}
	.st7{fill:#FFFFFF;fill-opacity:0;}
	.st8{fill-opacity:0.1;}
	.st9{fill-opacity:0.2;}
	.st10{fill-opacity:0.3;}
	.st11{fill-opacity:0.4;}
	.st12{fill-opacity:0.5;}
	.st13{fill:none;}
	.st14{display:none;}
	.st15{display:inline;}
	.st16{display:inline;fill:none;}
	.st17{fill:#9F499B;}
</style>
<g>
	<g>
		<polygon class="st0" points="60.7,150 30.9,201.6 60.7,253.1 90.5,201.6 		"/>
		<polygon class="st1" points="239.3,46.9 209.5,98.4 239.3,150 269.1,98.4 		"/>
		<polygon class="st2" points="269.1,98.4 179.8,253.1 239.3,253.1 298.8,150 		"/>
		<polygon class="st3" points="179.8,46.9 60.7,253.1 120.2,253.1 239.3,46.9 		"/>
		<polygon class="st4" points="60.7,46.9 1.2,150 30.9,201.6 120.2,46.9 		"/>
		<polygon class="st5" points="179.8,46.9 209.5,98.4 239.3,46.9 		"/>
		<polygon class="st6" points="150,98.4 179.8,46.9 209.5,98.4 		"/>
		<polygon class="st7" points="150,98.4 179.8,150 209.5,98.4 		"/>
		<polygon class="st8" points="120.2,150 150,98.4 179.8,150 		"/>
		<polygon class="st9" points="120.2,150 150,201.6 179.8,150 		"/>
		<polygon class="st10" points="90.5,201.6 120.2,150 150,201.6 		"/>
		<polygon class="st11" points="90.5,201.6 120.2,253.1 150,201.6 		"/>
		<polygon class="st12" points="60.7,253.1 90.5,201.6 120.2,253.1 		"/>
		<polygon class="st5" points="60.7,46.9 90.5,98.4 120.2,46.9 		"/>
		<polygon class="st6" points="30.9,98.4 60.7,46.9 90.5,98.4 		"/>
		<polygon class="st7" points="30.9,98.4 60.7,150 90.5,98.4 		"/>
		<polygon class="st8" points="1.2,150 30.9,98.4 60.7,150 		"/>
		<polygon class="st9" points="1.2,150 30.9,201.6 60.7,150 		"/>
		<polygon class="st7" points="90.5,201.6 60.7,150 30.9,201.6 		"/>
		<polygon class="st9" points="90.5,201.6 60.7,253.1 30.9,201.6 		"/>
		<polygon class="st9" points="269.1,98.4 239.3,46.9 209.5,98.4 		"/>
		<polygon class="st7" points="269.1,98.4 239.3,150 209.5,98.4 		"/>
		<g>
			<polygon class="st5" points="239.3,150 269.1,98.4 298.8,150 			"/>
			<polygon class="st6" points="239.3,150 269.1,201.6 298.8,150 			"/>
			<polygon class="st7" points="209.5,201.6 239.3,150 269.1,201.6 			"/>
			<polygon class="st8" points="209.5,201.6 239.3,253.1 269.1,201.6 			"/>
			<polygon class="st9" points="179.8,253.1 209.5,201.6 239.3,253.1 			"/>
		</g>
	</g>
	<rect class="st13" width="300" height="300"/>
</g>
<g class="st14">
	<g class="st15">
		<polygon class="st0" points="26.2,150 -15.1,221.5 26.2,293 108.7,293 		"/>
		<polygon class="st1" points="273.8,7 191.3,7 273.8,150 315.1,78.5 		"/>
		<polygon class="st2" points="315.1,78.5 191.3,293 273.8,293 356.4,150 		"/>
		<polygon class="st4" points="26.2,7 -56.4,150 -15.1,221.5 108.7,7 		"/>
		<polygon class="st12" points="191.3,7 232.6,78.5 273.8,7 		"/>
		<polygon class="st12" points="26.2,293 67.4,221.5 108.7,293 		"/>
		<polygon class="st5" points="26.2,7 67.4,78.5 108.7,7 		"/>
		<polygon class="st6" points="-15.1,78.5 26.2,7 67.4,78.5 		"/>
		<polygon class="st7" points="-15.1,78.5 26.2,150 67.4,78.5 		"/>
		<polygon class="st8" points="-56.4,150 -15.1,78.5 26.2,150 		"/>
		<polygon class="st9" points="-56.4,150 -15.1,221.5 26.2,150 		"/>
		<polygon class="st7" points="67.4,221.5 26.2,150 -15.1,221.5 		"/>
		<polygon class="st7" points="315.1,78.5 273.8,150 232.6,78.5 		"/>
		<g>
			<polygon class="st5" points="273.8,150 315.1,78.5 356.4,150 			"/>
			<polygon class="st6" points="273.8,150 315.1,221.5 356.4,150 			"/>
			<polygon class="st7" points="232.6,221.5 273.8,150 315.1,221.5 			"/>
			<polygon class="st8" points="232.6,221.5 273.8,293 315.1,221.5 			"/>
			<polygon class="st9" points="191.3,293 232.6,221.5 273.8,293 			"/>
		</g>
		<polygon class="st9" points="67.4,221.5 26.2,293 -15.1,221.5 		"/>
		<polygon class="st9" points="315.1,78.5 273.8,7 232.6,78.5 		"/>
	</g>
	<rect x="-58" y="-58" class="st16" width="416" height="416"/>
</g>
<g class="st14">
	<g class="st15">
		<polygon class="st3" points="191.3,7 26.2,293 108.7,293 273.8,7 		"/>
		<polygon class="st5" points="191.3,7 232.6,78.5 273.8,7 		"/>
		<polygon class="st6" points="150,78.5 191.3,7 232.6,78.5 		"/>
		<polygon class="st7" points="150,78.5 191.3,150 232.6,78.5 		"/>
		<polygon class="st9" points="108.7,150 150,221.5 191.3,150 		"/>
		<polygon class="st10" points="67.4,221.5 108.7,150 150,221.5 		"/>
		<polygon class="st11" points="67.4,221.5 108.7,293 150,221.5 		"/>
		<polygon class="st12" points="26.2,293 67.4,221.5 108.7,293 		"/>
		<polygon class="st8" points="108.7,150 150,78.5 191.3,150 		"/>
	</g>
	<g class="st15">
		<polygon class="st3" points="273.8,7 108.7,293 191.3,293 315.1,78.5 		"/>
		<polygon class="st6" points="232.6,78.5 273.8,7 315.1,78.5 		"/>
		<polygon class="st7" points="232.6,78.5 273.8,150 315.1,78.5 		"/>
		<polygon class="st9" points="191.3,150 232.6,221.5 273.8,150 		"/>
		<polygon class="st10" points="150,221.5 191.3,150 232.6,221.5 		"/>
		<polygon class="st11" points="150,221.5 191.3,293 232.6,221.5 		"/>
		<polygon class="st12" points="108.7,293 150,221.5 191.3,293 		"/>
		<polygon class="st8" points="191.3,150 232.6,78.5 273.8,150 		"/>
	</g>
	<g class="st15">
		<polygon class="st3" points="108.7,7 -15.1,221.5 26.2,293 191.3,7 		"/>
		<polygon class="st5" points="108.7,7 150,78.5 191.3,7 		"/>
		<polygon class="st6" points="67.4,78.5 108.7,7 150,78.5 		"/>
		<polygon class="st7" points="67.4,78.5 108.7,150 150,78.5 		"/>
		<polygon class="st9" points="26.2,150 67.4,221.5 108.7,150 		"/>
		<polygon class="st10" points="-15.1,221.5 26.2,150 67.4,221.5 		"/>
		<polygon class="st11" points="-15.1,221.5 26.2,293 67.4,221.5 		"/>
		<polygon class="st8" points="26.2,150 67.4,78.5 108.7,150 		"/>
	</g>
	<rect x="-58" y="-58" class="st16" width="416" height="416"/>
	<g class="st15">
		<polygon class="st0" points="26.2,150 -15.1,221.5 26.2,293 108.7,293 		"/>
		<polygon class="st1" points="273.8,7 191.3,7 273.8,150 315.1,78.5 		"/>
		<polygon class="st2" points="315.1,78.5 191.3,293 273.8,293 356.4,150 		"/>
		<polygon class="st4" points="26.2,7 -56.4,150 -15.1,221.5 108.7,7 		"/>
		<polygon class="st12" points="191.3,7 232.6,78.5 273.8,7 		"/>
		<polygon class="st12" points="26.2,293 67.4,221.5 108.7,293 		"/>
		<polygon class="st5" points="26.2,7 67.4,78.5 108.7,7 		"/>
		<polygon class="st6" points="-15.1,78.5 26.2,7 67.4,78.5 		"/>
		<polygon class="st7" points="-15.1,78.5 26.2,150 67.4,78.5 		"/>
		<polygon class="st8" points="-56.4,150 -15.1,78.5 26.2,150 		"/>
		<polygon class="st9" points="-56.4,150 -15.1,221.5 26.2,150 		"/>
		<polygon class="st7" points="67.4,221.5 26.2,150 -15.1,221.5 		"/>
		<polygon class="st7" points="315.1,78.5 273.8,150 232.6,78.5 		"/>
		<g>
			<polygon class="st5" points="273.8,150 315.1,78.5 356.4,150 			"/>
			<polygon class="st6" points="273.8,150 315.1,221.5 356.4,150 			"/>
			<polygon class="st7" points="232.6,221.5 273.8,150 315.1,221.5 			"/>
			<polygon class="st8" points="232.6,221.5 273.8,293 315.1,221.5 			"/>
			<polygon class="st9" points="191.3,293 232.6,221.5 273.8,293 			"/>
		</g>
		<polygon class="st9" points="67.4,221.5 26.2,293 -15.1,221.5 		"/>
		<polygon class="st9" points="315.1,78.5 273.8,7 232.6,78.5 		"/>
	</g>
</g>
<g class="st14">
	<g class="st15">
		<polygon class="st17" points="191.3,7 26.2,293 108.7,293 273.8,7 		"/>
		<polygon class="st5" points="191.3,7 232.6,78.5 273.8,7 		"/>
		<polygon class="st6" points="150,78.5 191.3,7 232.6,78.5 		"/>
		<polygon class="st7" points="150,78.5 191.3,150 232.6,78.5 		"/>
		<polygon class="st9" points="108.7,150 150,221.5 191.3,150 		"/>
		<polygon class="st10" points="67.4,221.5 108.7,150 150,221.5 		"/>
		<polygon class="st11" points="67.4,221.5 108.7,293 150,221.5 		"/>
		<polygon class="st12" points="26.2,293 67.4,221.5 108.7,293 		"/>
		<polygon class="st8" points="108.7,150 150,78.5 191.3,150 		"/>
	</g>
	<g class="st15">
		<polygon class="st17" points="273.8,7 108.7,293 191.3,293 315.1,78.5 		"/>
		<polygon class="st6" points="232.6,78.5 273.8,7 315.1,78.5 		"/>
		<polygon class="st7" points="232.6,78.5 273.8,150 315.1,78.5 		"/>
		<polygon class="st9" points="191.3,150 232.6,221.5 273.8,150 		"/>
		<polygon class="st10" points="150,221.5 191.3,150 232.6,221.5 		"/>
		<polygon class="st11" points="150,221.5 191.3,293 232.6,221.5 		"/>
		<polygon class="st12" points="108.7,293 150,221.5 191.3,293 		"/>
		<polygon class="st8" points="191.3,150 232.6,78.5 273.8,150 		"/>
	</g>
	<g class="st15">
		<polygon class="st17" points="315.1,78.5 191.3,293 273.8,293 356.4,150 		"/>
		<polygon class="st9" points="273.8,150 315.1,221.5 356.4,150 		"/>
		<polygon class="st10" points="232.6,221.5 273.8,150 315.1,221.5 		"/>
		<polygon class="st11" points="232.6,221.5 273.8,293 315.1,221.5 		"/>
		<polygon class="st12" points="191.3,293 232.6,221.5 273.8,293 		"/>
		<polygon class="st8" points="273.8,150 315.1,78.5 356.4,150 		"/>
	</g>
	<g class="st15">
		<polygon class="st17" points="108.7,7 -15.1,221.5 26.2,293 191.3,7 		"/>
		<polygon class="st5" points="108.7,7 150,78.5 191.3,7 		"/>
		<polygon class="st6" points="67.4,78.5 108.7,7 150,78.5 		"/>
		<polygon class="st7" points="67.4,78.5 108.7,150 150,78.5 		"/>
		<polygon class="st9" points="26.2,150 67.4,221.5 108.7,150 		"/>
		<polygon class="st10" points="-15.1,221.5 26.2,150 67.4,221.5 		"/>
		<polygon class="st11" points="-15.1,221.5 26.2,293 67.4,221.5 		"/>
		<polygon class="st8" points="26.2,150 67.4,78.5 108.7,150 		"/>
	</g>
	<g class="st15">
		<polygon class="st17" points="26.2,7 -56.4,150 -15.1,221.5 108.7,7 		"/>
		<polygon class="st5" points="26.2,7 67.4,78.5 108.7,7 		"/>
		<polygon class="st6" points="-15.1,78.5 26.2,7 67.4,78.5 		"/>
		<polygon class="st7" points="-15.1,78.5 26.2,150 67.4,78.5 		"/>
		<polygon class="st9" points="-56.4,150 -15.1,221.5 26.2,150 		"/>
		<polygon class="st8" points="-56.4,150 -15.1,78.5 26.2,150 		"/>
	</g>
	<rect x="-58" y="-58" class="st16" width="416" height="416"/>
</g>
</svg>
