<?xml version="1.0" encoding="utf-8"?>
<!-- Generator: Adobe Illustrator 20.1.0, SVG Export Plug-In . SVG Version: 6.00 Build 0)  -->
<svg version="1.1" id="Layer_1" xmlns="http://www.w3.org/2000/svg" xmlns:xlink="http://www.w3.org/1999/xlink" x="0px" y="0px"
	 viewBox="0 0 300 300" style="enable-background:new 0 0 300 300;" xml:space="preserve">
<style type="text/css">
	.st0{fill:#DD3735;}
	.st1{fill:#DD3A0A;}
</style>
<title>postcss-logo-symbol</title>
<g>
	<path class="st0" d="M56.6,125.4c0.4,0.3,1.1,0.5,0.4,1.1c-0.5,0.7-1.1,1.3-1.5,2.1c-0.4,0.7-0.7,0.9-1.3,0.4
		C55,127.7,55.8,126.5,56.6,125.4L56.6,125.4z M260.2,231.7c0,0.3,0.1,0.5,0.1,0.8c0.2-0.4,0.2-0.6,0.3-0.8H260.2z M260.2,232.6
		v-0.1V232.6z M239.5,272.1l-17.6-97.8c-0.3-0.1-0.7-0.3-1.4-0.5c0.2,0.4,0.3,0.7,0.4,1c0.5-0.1,0.7-0.1,0.9-0.2
		c0-0.1,0-0.2,0.1-0.3L239.5,272.1L239.5,272.1z M221.3,152.4c-0.1,0.3-0.1,0.6-0.1,0.9C221.2,153,221.2,152.7,221.3,152.4
		L221.3,152.4z M221.4,154.4c-0.1,0-0.1,0-0.2-0.1v0.1C221.3,154.5,221.3,154.5,221.4,154.4L221.4,154.4z M221.2,155.2v-0.7
		c-0.3,0.1-0.6,0.1-1,0.2C220.7,154.9,221.2,155,221.2,155.2L221.2,155.2z"/>
	<path class="st1" d="M300.1,130.6c-0.2-4-0.3-7.9-0.7-11.9c-0.7-5.4-1.4-10.9-2.6-16.1c-0.9-4.4-2.4-8.5-3.9-12.7
		c-1.9-4.9-3.8-9.8-6.3-14.5c-3.9-7.5-9.1-14.2-13.9-21.2c-3.1-4.5-7.2-8.1-10.2-12.7c-1.7-2.6-4.3-4.9-6.8-6.9
		c-4.1-3.3-8.3-6.2-12.6-9c-3.2-2.2-6.5-4.4-9.9-6.3c-2.7-1.5-5.7-2.7-8.5-4.1c-3.2-1.5-6.4-3.3-10-4.1c-0.9-0.2-1.7-0.5-2.6-0.8
		c-2.3-0.8-4.6-1.7-6.9-2.4c-3.5-1.1-7-2.4-10.6-3.3c-3.5-0.9-7.2-1.5-10.8-2c-4-0.6-8.2-0.8-12.3-1.2c-2.6-0.3-5.3-0.6-7.8-0.7
		c-3.8-0.2-7.8-0.2-11.6-0.3C150,0.3,148,0,146.1,0.2c-2.9,0.1-5.9,0.4-8.8,0.8c-2.8,0.3-5.7,0.8-8.4,1.2c-3.3,0.4-6.7,0.6-10,1
		c-3.1,0.4-6.4,1-9.5,1.5c-1.1,0.2-2.2,0.6-3.3,0.8c-2.4,0.5-5,0.7-7.4,1.5c-4.3,1.3-8.7,2.8-13,4.5c-4,1.6-7.8,3.3-11.5,5.4
		c-3.8,2.1-7.5,4.7-11.1,7.1c-3.4,2.3-6.9,4.8-10.2,7.4c-3.2,2.5-6.3,5.4-9.2,8.2c-1.6,1.6-2.9,3.5-4.5,5.4
		c-2.5,2.9-5.1,5.8-7.5,8.8c-2,2.5-3.8,5.2-5.8,7.8c-3.4,4.7-6.4,9.6-9.1,14.6c-1.1,2-2.1,4.1-3.1,6.1c-1.5,3-3.1,6-4.6,9.1
		c-1,2.1-1.8,4.5-2.4,6.8c-1.4,5-2.8,10-4.1,15c-1.2,4.5-1.5,9.1-1.6,13.7c-0.1,4.1,0.3,8,0.7,12.1c0.1,1-0.5,2.2,0.7,3
		c-0.4,1.1-0.1,1.7,0.5,1.9c-0.7,1.1,0.3,1.8-0.1,2.8c-0.1,0.2,0.3,0.6,0.5,0.9c0,0.3-0.1,0.7,0,1c0.1,0.9,0.5,1.8,0.5,2.8
		c0,0.7,0.6,1.5,0.8,2.2c0.1,0.3,0,0.8-0.2,1c-0.6,0.7-0.5,1.3,0.4,1.7c0.5,1.3,0.3,1.9,0.2,2.5c0.2,0.9-0.1,1.2,0,1.4
		c0.8,1.6,1.1,3.4,1.2,5.3c0,0.4,0.2,0.8,0.4,1.3c0.1,0,0,1.9,0,1.9c0.5-0.3,0.9-0.4,1.4-0.6c0.3,1.3,0.6,2.5,1,3.7
		c0.5,0.8,0.5,1.2,0.3,1.3c0.4,1.8,0.6,3.5,1.3,5.3c0-1.9-0.2-3.8-0.5-5.7c1.4,0.5,2.6,1,3.4,1c0.1-0.3,0.2-0.7,0.3-0.9
		c-0.6-0.6-1.1-1.5-1.7-2.1c0.2,0.8,0,1.1,0,1.4c-0.4-0.2-0.9-0.4-1.4-0.6c0.4-0.5,0.8-1,1.4-1.6c0-0.9-0.5-1.7-1.9-1.6
		c0.6-0.2,1.2-0.5,1.9-0.7c1.1-0.6-0.1-1.7-0.1-3.1c0.1-1.7-0.9-3.4-1.2-5.3c-0.5-2.8-0.4-7.1-0.7-9.9c-0.6-0.5-1.1,0.8-1.2,0.9
		c0.3,2.4,0.6,4.9,0.8,7.3c-0.6-2-1-4.3-1.5-6.7c-0.1,0.7-0.2,1-0.2,1.4c-0.5,0.5-0.1,1.1,0.2,1.8c-0.7-0.3-1.5-0.2-1.5-0.2v2.8
		c-1-1-1.3-1.8-1.8-2.5c-0.2-0.8-0.3-1.6-0.5-2.4c0.2-0.5,0-0.8,0-1.1c-0.1-0.7-0.2-1.5-0.3-2.4c0.1-0.1-0.1-1.6-0.1-1.6
		c0.8,0.1,1.3,0.2,1.8,0.2c-1-1.3-0.3-2.1,0.1-2.9c0.2-0.4,0.9-0.5,1.1-0.9c0.8-1.5,2.1-2.7,2.1-4.7c0-0.9,0.3-1.9,0.4-2.8
		c0.2-1.7,0.4-3.4,0.5-5.2c0.2-2.2,0-4.5,0.5-6.6c0.8-3.5,1.8-7.1,2.9-10.6c0.8-2.5,1.7-5,2.7-7.5c1.5-4,2.9-7.9,4.9-11.7
		c2.7-5.5,5.9-10.8,8.9-16.1c1.9-3.3,3.9-6.5,6.1-9.7c2-3.1,4-6.4,6.4-9.3c3.2-4.2,6.8-8,10.7-11.5c4.1-3.6,7.9-7.4,12.3-10.7
		c5.7-4.4,11.6-8.2,18-11.6c5.2-2.7,10.5-4.9,15.9-6.9c3.4-1.3,7.2-1.9,10.7-3c4-1.3,8.1-1.9,12.4-2c2.7-0.1,5.4-0.4,8.1-0.7
		c2.4-0.2,4.9-0.4,7.5-0.7c-0.3,0.4-0.4,0.6-0.5,0.8c-1.1,1.6-2.3,3.2-3.4,4.9c-0.9,1.3-1.9,2.7-2.8,4.1c-1.6,2.1-3.3,4.3-4.9,6.5
		c-2.3,3.3-4.5,6.8-6.9,10.1c-2.4,3.2-5.1,6.3-7.6,9.4c-3.3,4.4-6.5,8.8-9.8,13.2c-3,4.2-6.3,8.1-9.2,12.3c-2.6,3.6-5,7.5-7.5,11.2
		c-3.7,5.6-7.5,11.1-11.2,16.6c-2.9,4.3-5.9,8.4-8.9,12.7c-0.2,0.3-0.5,0.4-0.8,0.6c-0.8,1.3-0.8,2-1.1,2.6c-0.8,1.5-1.6,3-2.5,4.5
		c-0.5,0.8-1.2,1.5-1.8,2.3c-0.1-1.2,1.6-1.8,0.8-3.3c-0.5,0.8-1,1.5-1.5,2.3l-1.2,2.4c0.4,0.3,1.1,0.5,0.4,1.1
		c-0.3,0.5-0.6,1.1-0.9,1.6c0.5-0.3,0.8-0.6,1.1-1c0,1.1-0.6,2-1.1,2.9c-0.4,0.8-1.4,1.4-2.1,2c0.1,0.1,0.8,0.4,0.9,0.5
		c0.9-0.3,1.2-0.8,1.3-0.5c0.3-0.4,0.6-0.7,0.7-1c0.4-1,1-1.8,2-2.2c0.4-0.2,0.7-0.5,1-0.8c3-3.1,6.2-6.2,8.9-9.5
		c4.3-5.2,8.1-10.5,12.2-15.8c1.7-2.2,3.7-4.5,5.6-6.6c0.3,2.3,0.1,4.6,0,6.7c-0.3,3.7-0.5,7.5-0.8,11.4c-0.1,1.5,0,3-0.1,4.6
		c0,0.4-0.3,0.7-0.3,1.1c0,1,0.3,2.1,0.3,3.1c-0.3,3.8-0.7,7.4-1,11.2c-0.1,0.8,0.3,1.6,0.5,2.3c-0.5,5.5,0.6,11.3-0.3,17
		c0.7-1.1,0.9-1.8,0.9-2.5c0.1-0.6,0-1.2,0-1.9v-1c0.1-1.8,0.5-3.8,0.3-5.6c-0.2-2-0.2-4,0.2-5.9c0.2-0.8-0.1-1.8,0.4-2.8v1.5
		c-0.1,5.8,0.1,11.6-0.7,17.3c-0.1,0.5,0.3,1.4-0.8,1.3c-0.9,1.8,0.2,3.1-0.8,4.2c-0.2,0.2,0.2,1.1,0.3,1.7
		c-0.4,1.2-0.4,1.2,0.2,1.3c0.1,2.2,0.3,4.3,0.4,6.4c1.6-3.8,0.8-7.8,1.5-11.8c0.1,1.6,0.2,3.2,0.1,5c0,2.6-0.1,5.2-0.2,7.8
		c0,0.5-0.1,1-0.2,1.5c-0.3,1.4-0.4,2.8-0.9,4.2c-0.4,1-0.2,2.5-0.2,3.8v3.9c0.4,1.7-0.1,2.6,0.2,3.6c-0.3,1-0.4,1.3-0.3,1.6
		l0.3,1.5c2-0.2,1.1,1.3,1.9,2.1c-0.6,0.8-0.4,1.1-0.4,1.5c0,0.9-0.1,1.7-0.2,2.6c0,2.3-0.1,4.7-0.1,6.9c0,0.3,0.1,0.6,0.1,0.9
		c0,0.2-0.1,2.8-0.1,2.8c0.2,0.3,0,0.6-0.3,0.9c-0.1,0-0.4-12.9-0.4-12.9h-1.5c-0.2,6.1,0.3,11.6-0.8,17.2c-1.2,0.1-1.6,0.3-2.9,0.3
		c-3.1,0-6.3,0-9.4,0.1c-3.7,0-7.4,0.1-11.1,0.1c-1.8,0-3.7,0.2-5.6,0.2c-2.4,0-5-0.3-7.4-0.3c-3.8,0-7.4,0.3-11.1,0.4
		c-2.7,0.1-5.5,0.1-8.2,0.2c-1.8,0.1-3.7,0.2-5.5,0.4c-0.8,0.1-1.5,0.4-2.5,0.7c-0.3,0-1-0.1-1.6,0c-1,0.2-1.9,0.8-2.9,1
		c-1.5,0.3-1.9,0.7-1.7,2.2v1c-0.1,0.2,2.2-0.3,2.2-0.3c-0.2,0-0.3,0.6-0.6,1.1c0.8-0.3,1.3-0.5,1.8-0.7c1.5,0.7,2.8,0.3,4,0.6
		c3.9,1,8,1.4,12,1.8c2.6,0.2,5.2,0.3,7.8,0.4c3.7,0.2,7.5,0.4,11.2,0.4c3.1,0,6.2-0.3,9.3-0.3c4.3,0,8.7,0.2,13.1,0.3
		c0.9,0,1.9-0.1,2.9-0.1h7.4c6.6-0.2,13.2-0.3,19.8-0.5c3.8-0.1,7.6-0.3,11.3-0.4l11.5-0.3c4.5-0.1,8.9-0.1,13.3-0.2
		c3.3,0,6.6-0.1,9.9-0.2c3.7-0.1,7.6-0.4,11.3-0.6c2-0.1,4.1-0.3,6.1-0.5c2.4-0.2,5-0.5,7.4-0.6c3.6-0.2,7.4-0.3,11-0.5
		c4.6-0.3,9.1-0.7,13.8-0.8c4.3-0.2,8.6-0.1,12.9-0.2c3.7-0.1,7.5-0.3,11.3-0.4l6.4-0.3c0,0,4.2-0.1,6.4-0.3
		c3.6-0.2,7.3-0.6,10.9-0.7c2.3-0.1,4.7,0,7-0.1c3.7-0.1,7.6-0.3,11.3-0.3c1.4,0,2.9,0.2,4.8,0.3c-0.8,0.7-1.3,1.1-1.9,1.6
		c0.4,0.1,0.8,0.3,1.2,0.5c-0.6,0.4-1.1,0.5-1.6,0.5c-0.2,0.5-0.4,0.7-0.6,1.7h1.8c-0.7,0-1.3,0.9-2,1.5c-0.8-0.2-1.5,0-1.9,1.1
		c0.7,0.4,0.6,0.7,0.5,1.1c-1.2,0.4-2.1,0.8-1.6,2.1c-0.4,0.2-0.9,0.4-1.4,0.7c-0.5,0.8-1.4,1-1.2,2.1c0.4,0.1,0.8,0.3,1.1,0.4
		c-0.5,0.2-1,0.5-1.5,0.7c-1.8,1.1-1,1.6-0.6,2.1c-0.3,0.2-0.6,0.4-0.9,0.5c0.2,0.9,0.5,1.1,0.6,1.1c-0.4,0.3-0.9,0.7-1.5,1.2
		c-0.3,0.9-0.7,1.3-1.1,1.9c-0.4,0.6-0.6,1.4-1.1,2c-2.1,2.3-3.6,5.1-6.4,6.9c-1,0.7-1.9,1.6-2.8,2.5c-1.8,1.7-3.4,3.6-5.4,5.3
		c-2.5,2.1-5.2,4.1-7.9,6c-3.3,2.3-6.7,4.7-10,6.9c-1.8,1.2-3.8,2.1-5.8,3.2c-1.9,1.1-3.7,2.1-5.7,3.2c-1.2,0.8-2.3,1.9-3.6,2.5
		c-3.3,1.4-6.9,2.6-10.3,4c-3.3,1.4-5.8,2.6-8.3,3.5c-2.3,0.8-4.8,1.4-7.2,1.9c-0.8,0.2-1.7,0-2.6,0.1c-1.7,0.3-3.4,0.7-5.2,0.9
		c-4.5,0.6-8.9,1-13.4,1.6c-2.6,0.3-5.2,0.8-7.8,1.1c-1.8,0.1-3.7-0.1-5.6-0.1c-1.3,0-2.7,0.3-4.1,0.1c-2.1-0.3-4.3-0.8-6.4-1.2
		c-0.5-0.1-1.2-0.3-1.6-0.1c-0.8,0.4-1.5-0.2-2.3,0c-0.5,0.1-1-0.3-1.5-0.3c-0.4-0.1-0.9,0.1-1.4,0c-1.1-0.3-2.1-0.7-3.3-0.6
		c-1.2,0.1-2.4-0.5-3.7-0.8c-1.8-0.4-3.5-0.8-5.4-1.2c-0.7-0.2-1.3-0.5-2-0.9c-2.6,0-4.4-0.1-6-0.7c-1.4-0.5-2.7-1.2-4.3-1
		c-0.4,0.1-0.7-0.1-1.1-0.1c-0.3-0.4-0.6-1.2-0.9-1.2c-2,0.1-3.2-1.6-5-2.1c-0.9-0.3-1.6-1.3-2.5-1.6c-2.2-0.9-4-2.8-6.6-3.1
		c-0.8-0.1-1.6-0.5-2.5-0.8c0.3,0.4,0.5,0.7,0.8,1c-2.9-1.4-5.7-3-8.4-4.6c-0.4-0.1-0.7-0.5-1-0.7l-2.7-1.8
		c-1.5,0.3-2.1-0.3-2.5-0.5c-2.7-1.9-5.9-3.1-8.5-5.3c-1.1-0.9-2.4-1.5-3.2-2.6c-1.4-1.7-3.1-2.9-5.1-4c-1.5-0.8-2.9-1.7-4.3-2.6
		c-0.7-0.5-1.4-1.1-1.4-2.2c0-0.7-0.3-1.4-1.2-1c-0.4-0.6-0.8-1.3-1.3-1.5c-1.2-0.5-2-1.4-2.9-2.2c-0.9-0.8-1.6-1.9-2.7-2.3
		c-2-0.8-3.2-2.5-4.5-4c-2.8-3.3-5.4-7-8-10.5c-0.2-0.3-0.6-0.5-0.9-0.8c0.4,1.1,0.9,2,1.4,3c-1-0.4-1.7-1.1-2.3-1.8
		c-0.1,0.1,7,11.8,7,11.8c0.6,0.9,1.1,1.8,1.7,2.7c-1.5,0.1-2.5-0.7-3-1.6c-0.9-1.6-1.9-2.6-3.9-2.4c-0.2-0.7-0.4-1.5-0.5-2.2
		c-0.4,0-0.7,0-1.4-0.1c1.4,2.2,2.6,4.2,4,6.4c-0.5-0.3-0.8-0.5-1-0.6c1.8,1.9,3.1,4.4,5.5,5.6c0.5,2.3,3.1,3.4,3.7,5.7
		c-0.5-0.1-0.9-0.2-1.4-0.3c-0.8-1-1.7-2-2.6-3.1c0.2,0.7,0.5,1.3,0.9,1.8c1.2,1.5,2.3,3,3.7,4.4c0.5,0.5,1.2,0.7,1.2,1.6
		c0.8,0.4,1.1,0.5,1.4,0.5c0.2,0.6-0.1,1.5,1.1,1.3c0.8,1.5,1.6,1.5,2.7,1c1.3,1.3,2,1.4,2.9,0.6c0,0.5,0.1,1,0.1,1.4
		c0.4-0.2,0.3-0.5,0.3-1c0.5,0.4,0.8,0.6,1,0.8c1,1.4,1.9,2.7,3.3,3.9c1.9,1.6,3.6,3.3,5.5,4.9c3.5,2.9,7.5,5.4,11.4,7.6
		c4.9,2.7,9.5,5.7,14.5,8.3c6,3.1,12.4,5.3,18.9,6.8c2.4,0.5,4.8,1,7.2,1.6c2.1,0.6,4.2,1.5,6.4,2c3.2,0.7,6.6,1.3,9.8,1.9
		c0.7,0.1,1.4,0.2,2.2,0.3c0.9,0.2,2-0.2,2.2,0.1c0.5,0.8,0.9,0.4,1.5,0.3c0.7-0.2,1.5-0.2,2.3-0.2c2.8,0.1,5.6,0.7,8.4,0.5
		c0.6,0,1.5-0.5,2,0.5c0.9-0.4,1.4-0.4,1.8-0.5c0.1,0.9,0,0.9-0.2,1c-0.2,0.1-0.5,0.2-0.9,0.5c3.6,0.7,7.1,0.8,10.1,0
		c5.3,0.4,9.8-0.2,14.2-1.7c0.4,0.5,0.7,1.2,1.3,0.2c0.2-0.3,0.7-0.4,1.1-0.5c0.9-0.2,2-0.6,2.8-0.3c0.9,0.3,1.2-0.5,1.9-0.5
		c1.2,0,2.3-0.1,3.4-0.3c0.6-0.1,1.2-0.4,1.9-0.6c-0.8-0.4-1.6-0.5-2.2-0.5c1.2-0.6,2.3-1.1,3.4-1.6c-0.2,0.3-0.4,0.7-0.8,0.7h1.4
		c-0.3,0-0.7,0.9-1.2,1.5c3.6-0.9,7-1.7,10.2-2.5c-1.1-2.1,1.2-1.4,2-2.6c-1,0.3-2,0.6-3,0.8c3.4-1.7,7-3.2,10.4-4.8
		c-0.5,0.6-1.1,0.9-2,1.4c0.6,0.1,1,0.1,1.3,0.2c1.6,0.5,1.2-1,1.7-1.9c1.9,0,2.7-0.3,3.6-0.6c1-0.3,2-0.6,3-1
		c1.6-0.7,3.1-1.6,4.8-2.4c0.3-0.1,0.8,0,1.2,0c1.1-0.7,1.5-1.3,1.8-1.2c1.4,0.2,2.4-0.3,2.8-1.6c0.7-0.5,1.2-0.9,1.7-1.2
		c2.2-1.2,4.3-2.4,6.6-3.6c0.8,0,1.2,0,1.4-0.1c1.3-0.6,2.5-1.3,3.8-2c-0.3-0.1-1-0.5-1-0.5c1-0.2,1.3-0.3,1.9-0.5
		c2.4-2.8,5.8-4.8,8.3-7c1.1-0.1,1.1-0.4,1.1-0.6c0.4-0.5,0.8-1.1,1.3-1.5c2.2-2,4.7-3.8,6.7-5.9c2.9-2.9,5.8-6,8.4-9.1
		c2.4-2.8,4.9-5.7,6.9-8.8c2.8-4.4,5.3-8.8,7.8-13.4c1.8-3.2,3.4-6.5,5.3-9.7c0.2-0.3,0.6-0.7,0.9-0.7c2.7-0.3,5.5-0.5,8.1-0.8
		c0.6-0.1,1.3-0.5,1.9-0.8c-0.3-0.5-0.5-1.1-0.8-1.6c-0.4-0.6-1-1.1-1.4-1.7c-0.4-0.5-0.7-1.1-1-1.7c-0.3-0.5-0.6-0.9-0.9-1.4
		c-0.6-1.1-1.2-2.2-1.7-3.4c-0.1-0.3-0.3-0.8-0.2-1.1c1.8-4,2.5-8.2,4.3-12.2c1.7-4.1,2.2-8.6,3-13c0.7-4.2,1.1-8.3,1.6-12.5
		c0.3-2.9,0.7-5.8,0.8-8.7c0.6-4.7,0.4-9,0.3-13.4C300.5,138.4,300.3,134.4,300.1,130.6L300.1,130.6z M46,255.4
		c-0.7-0.8-1.3-1.7-2-2.5l0.3-0.3c1.1,1.2,2.2,2.4,3.3,3.8C47,256,46.3,255.8,46,255.4z M47.6,256.3c0.3-0.1,0.6-0.1,0.9-0.2
		c0.3,0.5,0.5,1.1,0.8,1.7C47.9,257.7,47.2,257.1,47.6,256.3L47.6,256.3z M153,298.2v-0.3c1.9-0.2,3.7-0.4,5.7-0.6v0.3
		C156.7,297.9,154.9,298.1,153,298.2L153,298.2z M178.5,295.6c-1.4,0.3-2.9,0.5-4.3,0.7c-0.5,0.1-1.1,0.6-1.3-0.3
		c-0.2,0.1-0.4,0.1-0.6,0.2c0.5,1.5,1.7,0.3,2.7,0.9c-2.2,0.3-4.3,0.5-6.5,0.8v-0.2c0.6-0.1,1.3-0.2,1.9-0.3v-0.3
		c-1-0.1-2-0.2-3-0.2c-0.3,0-0.7,0.4-1,0.5c-0.4,0.1-0.8,0.2-1.3,0.2c-1.7,0.1-3.4,0.1-5.1,0.2c-0.1,0-0.3-0.1-0.4-0.1v-0.3
		c6.8-0.9,13.5-1.8,20.3-2.7c0.1,0.2,0.1,0.4,0.2,0.6C179.4,295.3,179,295.5,178.5,295.6L178.5,295.6z M180,294.6
		c2.3-0.3,4.5-0.5,6.7-0.8C182,295.1,180.5,295.3,180,294.6L180,294.6z M91.8,89.8c3.2-4.5,6.6-8.9,9.8-13.5c1-1.3,1.8-2.7,2.8-4.1
		c0.3-0.4,0.7-0.6,1.2-1l-0.1-0.2c0.4-0.5,0.8-0.9,1-1.3c0.5-0.8,0.8-1.7,1.2-2.6c0.1-0.2,0.4-0.4,0.4-0.4c1.4,0.7,1.4-0.8,1.9-1.3
		c0.9-1,1.8-2.1,2.6-3.1c0.6-0.8,1.2-1.5,1.7-2.4c0.1-0.3-0.2-0.8-0.3-1.2h-0.3c0.3-0.2,0.6-0.5,0.9-0.7c0.1,0,0.1,0,0.2-0.1
		c0.6-0.9,1.2-1.8,1.8-2.6c1.2-1.6,2.5-3.2,3.9-4.7c-0.2,0.5-0.4,1-0.6,1.4c0.1,0,0.1,0.1,0.2,0.1c1.2-1.6,2.5-3.1,3.7-4.8
		c-0.1-0.1-0.2-0.2-0.3-0.2c-0.5,0.5-0.9,1-1.4,1.5c-0.1-0.1-0.2-0.2-0.3-0.2c1-1.3,2-2.6,3-4.2c0.2,0.3,0.4,0.7,0.8,1.5
		c0.4-1,0.8-1.7,1.1-2.4c-0.3,0.3-0.7,0.6-1,0.9l-0.3-0.3l1.8-2.7c1.9-2.7,3.8-5.6,5.8-8.3c0.7-1,1.6-1.8,2.2-2.8
		c1.9-3.8,5-6.9,7.3-10.4c0.5-0.7,1.2-1.3,1.8-1.9c0.5-0.6,0.9-0.4,1.3,0.1c2.7,3.4,5.5,7,8.2,10.4c2,2.5,4.1,5,6,7.6
		c2.3,3.2,4.6,6.5,6.9,9.7c2.6,3.8,5.3,7.5,7.8,11.4c3.8,5.7,7.5,11.4,11.3,17c2.8,4.2,5.7,8.2,8.4,12.4h-5.2
		c-4.8-0.1-9.6-0.5-14.4-0.3c-6.5,0.3-13.1,1-19.5,1.5c-8.2,0.7-16.5,0.8-24.7,0.8c-2.9,0-5.9,0.4-8.8,0.6c-3.5,0.2-7,0.4-10.5,0.5
		c-4.2,0.2-8.2,0.3-12.4,0.4C96.7,89.9,94.3,89.8,91.8,89.8L91.8,89.8z M207.9,136.4v0.9c-0.1,0-0.2,0.1-0.4,0.1
		c-0.4-1.4-0.8-2.9-1.3-4.4c-1-2.9-2.1-5.9-4-8.5c-2-2.8-3.8-5.8-5.9-8.7c-0.5-0.7-1.2-1.3-1.8-1.9c-2.1-2.3-4.3-4.8-7-6.5
		c-4.1-2.5-8.2-4.7-12.7-6.5c-1.2-0.5-2.3-1.1-3.5-1.8h2.4l17.3-0.3c3.7-0.1,7.4-0.1,11.1-0.3c0.9,0,1.4,0.3,1.9,1.1
		c0.9,1.5,1.8,3,2.8,4.6c0.1,0.2,0.3,0.5,0.3,0.8c0,2.2,0,4.6,0.1,6.8c0.1,2.3,0.3,4.6,0.4,6.9c0,2.3-0.2,4.8-0.1,7.2
		C207.8,129.3,207.9,132.9,207.9,136.4L207.9,136.4z M99,102.5c4.8-0.2,9.3-0.5,14-0.7c3.6-0.2,7.4-0.3,11-0.5
		c1.5-0.1,2.9-0.2,4.5,0c-1.6,0.8-3.2,1.6-4.7,2.6c-1.8,1.2-3.5,2.8-5.4,4.2c-1.8,1.3-3.4,2.9-5,4.7c-1.9,2.3-4.1,4.4-6.1,6.6
		c-1.4,1.6-3,3.1-4.3,4.9c-1.7,2.2-3.2,4.7-4.9,7.2C98.8,121.7,99.4,112.2,99,102.5L99,102.5z M165.1,200c-3.2,0.8-6.6,1.7-9.9,2.1
		c-2.8,0.4-5.8,0.3-8.7,0.3c-2.6,0-5.2-0.1-7.8-0.3c-2.9-0.3-5.9-0.6-8.7-1.9c-2.4-1.1-5-2.1-7.4-3.3c-2.4-1.2-4.9-2.6-6.7-4.9
		c-1.3-1.6-3.1-2.9-4.8-4.4c0.3,1.2,1,2.2,2.1,2.9c-0.5,0.6-1.2,0.3-2.2-1.3c-0.3,0.2-0.6,0.3-0.8,0.4c0.3-0.7,0.6-1.4,0.9-2
		c-0.4-0.8-0.9-1.7-1.3-2.5c-0.8-1.3-1.6-2.7-2.3-4.1c-0.2-0.3-0.2-0.6-0.4-0.9c-0.5-0.6-1-1.2-1.4-1.8c-0.8-1.2-1.5-2.5-2.5-3.7
		c0,0.3,0.1,0.6,0.1,1c-0.1,0-0.2,0.1-0.2,0.1l-2.1-5.2c-0.1,0-0.1,0-0.2,0.1l1.8,6.7c-0.1,0-0.2,0.1-0.3,0.1
		c-0.3-0.4-0.6-0.8-0.8-1.3c-0.2-0.8-0.8-0.8-1.3-0.5c-0.3,0.2-0.5,0.9-0.4,1.2c0.7,1.7,1.5,3.4,2.3,5.2c0.2,0.6,0.4,1.1,0.7,1.7
		c0.1,0.2,0.4,0.4,0.4,0.7c0.4,0.8,0.7,1.6,1.2,2.3c0.9,1.2,1.9,2.4,2.8,3.6c0.9,1.2,1.7,2.5,2.5,3.8c0.1,0.2,0.4,0.2,0.5,0.3
		c0.5,1.5,2.2,2.6,3.4,2c0.3,2.3,2.8,3.1,3.8,5.4c-1.2-0.5-2.1-0.9-2.9-1.3c-0.1,0.1-0.1,0.2-0.2,0.4c1.2,0.6,2.4,1.2,3.5,1.9
		c1,0.6,2,1.2,2.9,1.9c1.2,1.1,2.6,1.7,4.3,2.1c-0.1-0.3-0.2-0.4-0.2-0.4c2.8,1.3,5.8,2.7,8,3.8c-10.5,0.2-21.8,0.4-33.4,0.6
		c0-1.9-0.1-3.8-0.1-5.7c0-0.8,0.2-1.5,0.1-2.3c-0.3-4.7-0.3-9.3-0.9-13.9c-0.6-4.9-0.6-9.6-0.5-14.5c0.1-2.6-0.1-5.4-0.2-8
		c0-3.5,0-7,0.1-10.5c0-0.5,0.2-0.9,0.4-1.4h0.3c0.1,0.2,0,0.5,0.2,0.6c0.3,0.3,0.8,0.8,1,0.7c0.6-0.4,1.5-0.8,1.7-1.4
		c0.5-1.2,0.7-2.5,0.7-3.7c0-0.9,0.4-1.5,0.8-2.1c0.2-0.3,0.3-0.6,0.5-1c-0.4-0.3-0.8-0.5-1.3-0.9c0.4-1.1,0.3-2.4,1.8-3
		c0.2-0.1,0.2-0.6,0.3-0.9c0.1-0.8,0.2-1.7,0.3-2.5c0.2,0.3,0.3,0.4,0.5,0.6c0.1-0.2,0.2-0.3,0.2-0.3c0-0.4-0.1-1.2,0-1.2
		c1.2-0.2,0.7-1.5,1.3-2.1c0.1-0.1-0.1-0.4-0.1-0.6c0-0.2,0-0.5,0.1-0.5c1.4-0.3,1.2-1.8,2.1-2.5c0.3-0.2,0.4-0.5,0.8-1
		c0.8,1.4-0.6,2.1-0.7,3.1c1.7-1,2.2-3.4,1.2-4.2c0.4-0.3,0.8-0.7,1.1-1.1c1.1-1.2,2.3-2.3,3.3-3.5c0.7-0.9,1.1-2,1.8-2.9
		c0.4-0.5,1.2-0.9,1.8-1.2c1.8-1,3.5-2.1,4.7-3.8c0.2-0.2,0.5-0.4,0.8-0.6c0.3-0.2,0.9-0.2,1-0.5c0.1-0.2-0.2-0.7-0.4-1
		c0.4-0.2,0.8-0.6,1.6-1c-0.3,0.6-0.4,1-0.6,1.4l0.5,0.5c0.9-0.7,2.3-1.5,3.2-2.1c0-0.1-0.5-0.5-0.5-0.5c-0.6,0.3-1.5,0.8-2.4,1.2
		c0.2-0.3,0.2-0.5,0.3-0.6c1.4-0.9,2.8-1.8,4.3-2.5c3.5-1.6,7.1-3.2,10.6-4.8c0.6-0.3,1.4-0.1,2.1-0.1c0.3,0,0.5,0,0.8-0.1
		c1.6-0.5,3.2-1,4.9-1.4c0.7-0.2,1.5-0.3,2.2-0.3c3,0.1,6.1,0.1,9.1,0.3c1.3,0.1,2.5,0.4,3.7,0.8c1.5,0.5,3.1,1.2,4.6,1.9
		c1.7,0.9,3.3,1.9,5,3c2.9,1.9,5.7,4.1,8.6,5.8c2.8,1.7,5.1,4.1,6.9,6.7c2.2,3.1,4.8,6,5.8,9.8l1.5,6.7c0.3,1.2,1,2.4,0.7,3.8
		c-0.5,2.5-0.9,5.2-1.3,7.7c-0.2,1-0.4,2-0.3,3c0.2,3.2-1,5.9-2.2,8.7c-0.4,0.9-1,1.8-1.5,2.8c0.1,0.1,0.7,0.4,0.8,0.4l0.9-1.8
		c0.1,0,0.1,0,0.2,0.1c-0.5,1.4-0.9,2.9-1.4,4.4c-1.2,3.1-2.4,6.4-3.9,9.4c-0.8,1.7-2.2,3.1-3.2,4.8c-1,1.4-1.8,2.9-2.8,4.3
		c-0.9,1.1-1.8,2.2-3,3c-2.7,2-5.6,4.1-8.5,5.7C169.2,198.9,167.1,199.5,165.1,200L165.1,200z M111.1,194.6l-0.1,0.1
		c-0.2-0.1-0.5-0.2-0.7-0.4l-2.4-3.7c-0.2-0.3-0.3-0.6-0.2-1C108.8,191.4,109.9,193,111.1,194.6L111.1,194.6z M174.1,208.5
		c4.6-1.9,8.3-4.7,11.7-7.8c0.5-0.5,1-1,1.6-1.4c4.3-2.6,7.4-6.3,10.2-10.3c3.2-4.7,5.4-9.9,8-14.9c0.2-0.4,0.4-0.8,0.6-1.1
		c-0.2,11.6,1.1,22.9,2.6,34.4C197.5,207.7,185.9,208.1,174.1,208.5L174.1,208.5z M276.8,205.5c-0.1,0.2-0.3,0.4-0.4,0.6
		c-0.1-0.2-0.1-0.5-0.2-0.9c-0.6,1.6-1.9,0.8-2.8,0.8c-5.5,0.1-11,0.1-16.5,0.1c-5.3,0-10.6,0-15.9,0.1c-1.7,0-3.5,0.4-5.3,0.5
		c-4.1,0.2-8.3,0.3-12.5,0.4c-0.3,0-0.6-0.5-1.1-0.9c-0.1,0.2-0.3,0.5-0.6,0.9c-0.1-0.2-0.3-0.4-0.5-0.7c-0.1,0.3-0.2,0.6-0.3,0.8
		h-0.3c-0.2-1.4-0.6-2.7-0.6-4.2c0-3,0.3-6.1,0.4-9.1c0.1-1.4,0-2.7,0-4.1c0.4,0.3,0.7,0.5,1.1,0.8c0.2-0.4,0.4-0.7,0.6-1
		c0,0-0.2-0.1-0.4-0.3c0.2-0.1,0.4-0.3,0.4-0.4c0.1-0.3,0.3-0.6,0.3-0.8c0-0.7-0.2-1.3-0.3-1.9c0.1,0,0.2,0,0.3-0.1l0.6,3h0.3
		c-0.4-0.7,0.9-1.3-0.2-2.1c-0.1-0.1,0.1-0.7,0.1-1c-0.3-0.6-0.5-1.2-0.8-2c0.1-0.1,0.4-0.2,0.7-0.3c-0.4-0.2-0.7-0.4-1-0.5
		c1-0.9,1-1.4,0.1-2.4c0.2-0.1,0.4-0.1,0.4-0.2c0-0.9,0-1.8-0.2-2.7c-0.2-1,0.3-2.2-1.2-2.8c0.1,0.3,0.2,0.5,0.4,0.8
		c0,0-0.3,0.1-0.6,0.3c-1.3-1.2-0.5-2.8-0.8-4.7c0.7,0.2,1.2,0.4,1.7,0.6c-0.2-0.7-0.7-1.5-1-2.4h-0.4v-6.7c0,0.1,0.7,0.1,1.1,0.2
		c0-0.1,0.1-0.2,0.1-0.3c-0.3-0.4-0.7-0.8-1.1-1.3l0.2-0.2c-0.8-1-0.4-2.4-0.4-2.7v-7.1c1,1-0.5,2.3,1,2.9v-1h-0.1
		c-0.1-1.5-0.1-3-0.2-4.6h-0.2c-0.1,0.2-0.1,0.3-0.2,0.5h-0.2l0.6-24.2c1,1.3,2.1,2.5,2.8,3.8c2.3,4.3,5.4,7.9,8.2,11.8
		c2.4,3.3,4.7,7,6.9,10.4c2.7,4.2,5.4,8.3,8.1,12.5c2,3.1,4.2,6.3,6.3,9.3c1.9,2.7,4,5.4,6,8c1.7,2.3,3.5,4.7,5.3,7
		c2,2.8,4.1,5.7,6.1,8.4c1,1.4,2.1,2.8,3.2,4.3c0.6,0.8,1.5,1.4,2.1,1.9c-0.1,0-0.2,0-0.4-0.1c0.3,0.4,0.5,0.7,0.7,0.9
		C277.3,204,277.4,204.6,276.8,205.5L276.8,205.5z M282,180.2v-0.7C282,179.6,282.1,179.9,282,180.2L282,180.2z M285.4,135.4
		c-0.1,0-0.7-0.6-0.8-0.7c-0.1,0.3,0,0.6-0.2,1c-0.1-0.3-0.8-0.2-0.8-0.5c-0.1,1.4,0.6,2.8,0.5,4.3c0.3-0.2,1.5-0.3,1.8-0.6
		c0.1,0.1,0.3,0.2,0.4,0.2c-2,1.5-1.5,3-0.6,4.8c0.2,0.4,0.8,1.2,0.2,2c-0.2,0.2,0.1,0.8,0.2,1.3h0.3v0.2l-0.9,0.3
		c-0.2-0.3-1.4-0.9-1.4-1.4v5.2c1,0.3,1,1.7,1.4,2.4c0.2-0.3,0.3-0.5,0.4-0.8l0.1,0.1c-0.1,0.6-0.2,1.2-0.4,1.8
		c-0.2,0.9-0.4,1.7-0.5,2.6c0,0.1,0.2,0.3,0.2,0.4c-1.1,2.5-0.5,5.4-0.9,8c-0.3,1.9,0,4-0.2,6c-0.2,1.7-0.6,3.5-1,5.3
		c-0.1,0.3-0.3,0.4-0.8,0.6c0.2-1.2,0.1-2-0.1-3.1c-0.1,0-1.4-0.7-1.5-0.7c0,1.4,0.8,3.3,1.1,5c-0.3-0.1-1.5-0.8-1.6-0.8
		c-0.2,1.2-0.2,2.8-0.3,4.2c-0.1,1-1,1.9-1.1,3c0,0.6,0.7,1,0.6,2h0.8c0-2,0.9-3.8,0.9-6h0.3c0.1,0.2,0.4,0.4,0.3,0.5
		c-0.2,1.1-0.6,2.3-0.5,3.4c0,0.6,0.5,1.2,0.3,1.9c-0.2,0.6-0.3,1.2-0.4,2.1c-0.1-0.5-0.2-0.7-0.2-1c-0.1,0-1-0.1-1.1-0.1
		c-0.1,0.6,0.7,1.2,0.6,1.7c-0.1,0.1-0.2,0.1-0.4,0.2l-3.3-4.9c-2.6-3.8-5.3-7.7-7.9-11.7c-0.7-1-1.3-2-1.8-3
		c-3.1-5.4-6.6-10.6-10.4-15.5c-2.9-3.7-5.3-7.8-8-11.8c-2.5-3.8-5.1-7.4-7.6-11.2c-0.9-1.2-2-2.3-2.8-3.6c-2.6-4.2-5-8.4-7.6-12.6
		c-2.2-3.5-4.7-6.8-7-10.1c-0.8-1.1-1.6-2.3-2.4-3.6c-0.1-0.2-0.2-0.4-0.2-0.7c-0.2-2.2-0.4-4.5-0.5-6.6c0-2,0.2-4.1,0.2-6.2v-1.8
		c0-0.5,0.1-0.9,0.1-1.4c0.1-0.1,0.2-0.3,0.3-0.4c-2.9,0-6-0.1-8.9,0c-1.9,0.1-2.9-0.7-4.3-2.1c-3.8-4.4-6.7-9.3-10-14
		c-3.1-4.5-6.4-8.8-9.6-13.2c-2.6-3.5-5.3-7-7.9-10.5c-2.9-4.1-5.8-8.1-8.8-12.2c-3.6-4.9-7.4-9.7-11.1-14.6
		c-1.7-2.2-3.7-4.4-5.6-6.7c1.3,0.2,2.5,0.4,3.8,0.5l4.9,0.3c3.6,0.3,7.3,0.5,10.9,1c3,0.4,6.1,1,9.2,1.5c6.7,1.1,13.3,2.9,19.7,5.1
		c3.7,1.2,7.4,2.8,11,4.4c8.2,3.3,16,7.4,23.7,11.7c2.4,1.3,3.8,3.4,5.7,5.4c2.6,2.7,5.3,5.5,7.8,8.3c2.9,3.3,5.7,6.8,8.5,10.2
		c2.5,3,5.2,6.1,7.7,9.1c0.8,0.9,1.4,2,2.1,3c1.6,2.4,3.4,4.8,4.9,7.4c1,1.9,1.6,4.2,2.3,6.3c1,3.1,2,6.2,3,9.3
		c0.7,2.3,1.3,4.8,1.8,7.2c0.4,1.6,0.3,3.3,0.8,5c0.6,2.1,0,4.5,0.6,6.6c0.1,0.2,0.2,0.5,0.3,0.7c0.4,0.4,0.7,0.8,0.1,1.4
		c-0.1,0.1-0.1,0.5,0,0.8c0.2-0.2,0.3-0.4,0.5-0.7c0,0.2,0.1,0.3,0.1,0.4c0,0.4-0.1,0.8,0,1.2c0,0.2,0.2,0.5,0.3,0.7
		c0.2-0.2,0.4-0.3,0.8-0.6c0.9,3.5,1,6.9,1,10.4c0,3.3,0.6,6.7-0.8,9.9C285.8,137.4,285.1,136.4,285.4,135.4L285.4,135.4z"/>
	<path class="st0" d="M220.7,174.9c0.1,0,0.2,0.1,0.2,0.1L220.7,174.9C220.8,174.8,220.8,174.8,220.7,174.9L220.7,174.9z
		 M236.7,275.1c-1.1,0.8-2.2,1.5-3.6,1.8c-0.1-0.1-0.1-0.2-0.2-0.3c1.1-0.7,2.3-1.4,3.4-2.1C236.4,274.7,236.6,274.9,236.7,275.1
		L236.7,275.1z M46.8,137.7c1.1-1.4,2.2-2.8,3.4-4.3c0.1,0.1,0.9,0.3,1,0.4c-1.1,1.4-2.6,3.3-3.7,4.9
		C47.3,138.5,47,137.8,46.8,137.7L46.8,137.7z M18,187.4c-0.8-1.7-1.6-3.6-2.4-5.3c0.1-0.1,0.8-0.4,0.9-0.4c1.1,1.6,1.6,3.5,2.4,5.3
		C19,186.9,18.2,187.4,18,187.4L18,187.4z M43.9,138.7c-0.6,0.9-1.2,1.9-1.8,2.8c-0.1-0.1-1.2,0.4-1.3,0.3c0.6-0.9,2.1-2.5,2.7-3.4
		C43.6,138.5,43.7,138.6,43.9,138.7L43.9,138.7z M225.9,279.2c0.1,0,0.1-0.1,0.2-0.1c0.7,0.1,1.5,0.2,2.3,0.2
		C227.1,280.3,226.3,280.1,225.9,279.2L225.9,279.2z M44.1,142.9c0.1-0.3,0.3-0.6,0.5-0.9c0.2,0,0.5-0.1,0.5-0.1
		c0.4-0.7,0.4-1.2,0.8-1.8c-0.1-0.1-0.2-0.1-0.3-0.2c-0.6,0.4-1.2,0.9-1.8,1.3c0.2,0.2,0.2,0.3,0.2,0.5c-0.8-0.1-1.1,0.3-1.5,1.4
		c-0.1,0.3-0.6,0.4-1.1,0.8c-0.1,0.2-0.2,0.7-0.4,1.2l0.1,0.1c-0.2,0.2-0.5,0.3-0.5,0.3c-0.6,0.6-1.3,1.1-1.9,1.7
		c-0.1,0.3-0.2,0.6-0.2,0.9c0.7-0.7,1.9-2,2.8-2.8l0.1,0.1c0.4-0.6,0.7-1.2,1.1-1.8c0.1,0.1,0.1,0.2,0.2,0.3
		c-0.3,0.8-0.6,1.7-0.9,2.5c-0.2,0.1-0.5,0.3-0.5,0.2c-0.4,0.3-0.7,0.7-1.1,1l-1.8,1.2c-1,0.9-2,1.7-3.1,2.6
		c-0.7,1.1-1.4,2.1-2.2,3.4c1.2-0.3,1.5,0.2,1.4,1.2c1.4,0.2,1.5-0.9,1.9-1.7c0.1-0.2,0.2-0.6,0.4-0.7c0.9-0.8,1.9-1.5,2.9-2.3
		c0.2-0.2,0.2-0.6,0.2-0.9c0-0.1-0.5-0.1-0.8-0.2c0.9-1,2.2-2.7,3.1-3.8c0.5-0.3,1-0.7,1-1c-0.1-1.1,0.6-1.4,1.4-1.8
		C44.2,143.3,44.1,143,44.1,142.9L44.1,142.9z"/>
	<path class="st0" d="M46.1,141.8c-0.4,0.7-0.8,1.3-1.2,2l-0.6-0.3c-0.4,2.3-1.8,4.4-3.2,4.8c0.4,0.2,0.8,0.4,1.1,0.3
		c0.3-0.1,0.5-0.6,0.7-0.9l2.7-4l0.9-1.5L46.1,141.8L46.1,141.8z M12.4,186.3c0.5,0,1,0.1,1.6,0.1c0-0.4,0.5-0.3,0.5-0.7h0.3
		c0,0.5,0.1,0.9,0.1,1.4h-2.1C12.7,187,12.3,186.4,12.4,186.3L12.4,186.3z M11.6,181.7c-0.3-0.3-0.8-0.6-0.8-0.9
		c-0.1-0.4,0.2-0.9,0.5-1.4c0.2,0.7,0.3,1.3,0.5,2C11.7,181.5,11.6,181.6,11.6,181.7L11.6,181.7z M14.1,175.2c0.4,1,0.8,2.1,1.2,3.2
		c-0.1,0-0.7,0.3-0.8,0.4c-0.4-1-0.9-2.1-1.3-3.1C13.3,175.5,13.9,175.2,14.1,175.2L14.1,175.2z M239.6,272.1
		c0.5-0.2,1.1-0.3,1.9-0.5c-0.9,0.7-1.6,1.2-2.2,1.8c-0.1-0.1-0.2-0.2-0.3-0.2C239.1,272.9,239.3,272.5,239.6,272.1z M115.1,57.8
		c0.6-0.4,1.1-0.7,1.7-1.1l0.2,0.2c-0.6,0.8-1.1,1.6-1.8,2.6c-0.1-0.7-0.1-1.1-0.2-1.6C114.9,58,115,58,115.1,57.8L115.1,57.8z
		 M144.7,109.2c0.9-0.4,1.8-0.8,2.9-1.3c-0.1,0.6-0.1,1-0.1,1.4c-0.3-0.1-0.7-0.2-1-0.2c-0.6,0.1-1.7,0.9-2.2,1
		C144.2,110.1,144.7,109.3,144.7,109.2L144.7,109.2z M220.7,195.2c0.2,1,2.1,1.5,0.2,2.5c0.3,0.2,0.6,0.3,0.9,0.5
		c0,0.1-0.1,0.3-0.2,0.4c-0.2,0.1-0.6,0.3-0.8,0.2c-0.1,0-0.3-0.4-0.3-0.6C220.5,197.3,220.6,196.4,220.7,195.2L220.7,195.2z"/>
</g>
</svg>
