<?xml version="1.0" encoding="utf-8"?>
<!-- Generator: Adobe Illustrator 20.1.0, SVG Export Plug-In . SVG Version: 6.00 Build 0)  -->
<svg version="1.1" id="Layer_1" xmlns="http://www.w3.org/2000/svg" xmlns:xlink="http://www.w3.org/1999/xlink" x="0px" y="0px"
	 viewBox="0 0 300 300" style="enable-background:new 0 0 300 300;" xml:space="preserve">
<style type="text/css">
	.st0{fill:#CC6699;}
</style>
<g id="P7Bpq9_3_">
	<g>
		<path class="st0" d="M140.9,168.5c4,0.7,5.8,2.9,4.9,6.9c-2.5,9.6-5.4,19-7.2,28.9c-0.4,2.5-0.7,4.7-0.2,7.4
			c1.3-0.2,1.6-1.3,2-2.2c8.1-15.2,14.5-31.1,21.5-46.7c2.7-6,4.7-11.9,6-18.1c0.4-1.6,1.3-2.5,2.9-2.9c4-1.1,8.5-1.8,12.7-1.1
			c3.6,0.7,4.7,2.2,3.4,5.8c-2.7,6.9-3.6,14.1-2.2,21.5c0.4,2.9,1.6,5.6,2.9,8.3c0.7,1.3,1.3,1.6,2.2,0.2
			c6.5-11.9,14.3-23,17.7-36.5c1.6-7.2,2-7.4,10.1-8.1c2,0,3.8-0.2,5.8,0c3.8,0.4,4.9,2.2,3.6,5.8c-2.5,6.9-3.6,13.9-2.2,21.2
			c0.9,4.7,3.4,8.7,5.4,12.7c0.7,1.3,1.6,1.1,2.7,0.7c6.9-3.1,14.1-4.9,21.7-5.4c16.6-0.7,31.1,3.4,40.7,18.1
			c4.7,7.4,6.3,15.4,1.8,23.7c-2.5,4.5-6.3,7.6-11,9.4c-1.1,0.4-2.5,0.9-3.1-0.4c-0.7-1.3,0.7-1.8,1.3-2.5c11.4-8.5,11.4-21,0-29.7
			c-6.5-4.9-13.6-7.2-21.7-7.8c-8.7-0.9-17.4-0.7-25.9,2.5c-1.8,0.7-2.2,1.3-1.6,3.1c4.9,13.6-1.1,21.7-11.6,28.6
			c-3.4,2.2-6.9,3.6-10.7,4.7c-7.8,2.2-12.5-2-11-10.1c1.3-7.4,5.4-13.4,10.3-19c1.3-1.3,2.7-2.9,4-4c1.1-0.9,2.5-1.6,2.7-2.7
			c0-0.9-4-4.2-8.3-22.1c-1.3,2.5-2.7,4.9-4.2,7.6c-3.6,6.5-12.3,20.4-12.5,21.2c-0.2,0.9,0,1.8,0.4,2.7c1.1,2.7,1.8,5.6,2,8.5
			c1.1,11-4,18.3-13.4,23.3c-5.8,2.9-11.9,4.9-18.3,4.7c-2.7,0-5.1-0.7-6.5-3.1c-1.1-2.5-0.2-4.7,1.3-6.7c4.9-6,10.1-12.1,15-18.3
			c2.9-3.6,4-5.1,4-6.9c0-1.6-5.1-7.8-8.5-23.9c-1.8,4.2-3.6,8.5-5.4,12.5c-6,13.9-13,27.3-20.4,40.5c-1.6,2.9-3.6,5.6-6.3,7.6
			c-5.4,4.7-11.2,2.9-13.2-4c-1.1-4-1.6-8.3-0.9-12.5c0,0,0.2-2,0-2.2c-2.9,6.3-5.4,12.3-8.7,18.1c-2.7,4.5-6,7.8-11.9,7.2
			c-2.9-0.2-5.1-1.3-6.9-3.6c-4.7-6-6.7-13-7.6-20.6c-0.9-7.8,0.7-15.7,2.5-23.3c0.2-0.9,0.7-1.6,0.4-2.9c-4.7,2.7-9.4,5.6-14.1,8.3
			c-1.3,0.9-0.9,1.8-0.7,2.9c5.4,16.6,3.4,32.2-6.7,46.5c-7.4,10.5-17.7,17-30.4,19.5c-0.7,0.2-1.6,0.4-2.2,0.7c-3.6,0-6.9,0-10.5,0
			c-0.2-0.2-0.4-0.2-0.9-0.4c-10.3-2.5-15.4-8.7-15.7-19.2c-0.4-11.4,4.7-20.1,12.7-27.5c9.8-8.9,21-15.7,32.7-21.7
			c3.1-1.6,3.1-1.8,0.2-4c-5.6-4-11.2-8.1-16.8-12.1c-8.5-5.8-16.8-12.1-23.9-19.5C8.3,150.9,3.2,142.6,0.5,133
			c-4.7-21.7,13.6-37.1,25.9-48.3C36.9,74.8,49,66.8,61.5,60.1c17.4-9.2,35.3-17,55-20.6c2.9-0.4,26.6-4.7,48.1,3.4
			c8.3,3.4,15.9,8.1,20.1,16.3c4.9,9.2,4.7,18.8,1.8,28.4c-5.8,18.6-17.9,32-34.4,41.4c-12.7,7.2-26.8,10.7-41.4,11.9
			c-9.2,0.7-18.3,0.4-26.8-3.1c-4.9-2-9.2-5.1-12.3-9.4c-1.1-1.3-1.8-2.9-2.2-4.7c-0.2-1.1-0.4-2.2,0.7-2.9c1.1-0.7,1.8,0.2,2.5,0.9
			c7.8,8.1,17.7,9.8,28.2,8.9c18.3-1.3,35.1-7.4,49.7-18.8c7.8-6,14.1-13.2,18.6-22.1c1.8-3.8,2.9-7.8,3.1-12.1
			c0.7-7.6-3.4-13.9-11-17.2c-9.2-4-18.8-4.7-28.6-3.8c-33.3,3.1-61.5,18.1-87.5,38c-6.7,5.1-12.3,11.4-16.8,18.8
			c-7.2,14.3-5.6,28.4,6,40.5c6.7,7.2,14.8,12.7,22.6,18.8c4.2,3.4,8.7,6.9,12.5,11c1.1,1.3,2.2,1.3,3.8,0.4
			c8.5-4.7,17.2-9.4,25.7-14.1c1.3-0.7,2-1.6,2.9-2.7c4.9-5.8,10.3-11,17.2-14.1c1.6-0.7,3.1-1.3,4.7-1.6c7.2-1.8,12.3,1.8,13,9.2
			c0,0.9,0,1.8,0,2.7c0,0,0,4.9-0.4,7.6C137.6,167.9,140.9,168.5,140.9,168.5z M68.5,207.7c0.2-2.2-0.2-5.1-0.9-8.1
			c-0.2-1.1-0.7-1.8-2-0.9C55.3,205,45,211.3,36.9,220.4c-4.5,5.1-7.4,11-6.7,18.1c0.2,3.6,2.5,5.8,6,6.3c1.6,0.2,2.9,0,4.2-0.2
			C56.2,241,68.5,225.1,68.5,207.7z M104.5,203.7c0,2.2,0,4.2,0.4,6.5c0.4,2.2,0.2,5.4,2.9,5.8c2.5,0.4,3.4-2.7,4.2-4.5
			c4.2-8.3,7.2-17,10.5-25.5c2.2-5.8,4.2-11.9,5.4-18.1c0.2-1.3,0.7-2.9-0.4-3.8c-1.3-1.1-2.7-0.4-4,0.2c-1.8,0.7-3.1,1.8-4.5,3.1
			C109.6,177.5,105.2,189.8,104.5,203.7z M223.9,191.4c0-0.9,0-1.8,0-2.7c-0.2-1.6-0.7-2.2-2.2-0.9c-4.9,4.7-7.8,10.3-9.6,16.8
			c-0.2,0.4-0.4,1.1,0.2,1.6c0.7,0.4,1.3,0,1.8-0.2C220.3,203.4,223.9,198.1,223.9,191.4z M169.6,216.4c6-0.9,15.4-10.7,13.6-15.9
			C179,205.9,174.7,211,169.6,216.4z"/>
	</g>
</g>
</svg>
