<?xml version="1.0" encoding="utf-8"?>
<!-- Generator: Adobe Illustrator 20.1.0, SVG Export Plug-In . SVG Version: 6.00 Build 0)  -->
<svg version="1.1" id="Layer_1" xmlns="http://www.w3.org/2000/svg" xmlns:xlink="http://www.w3.org/1999/xlink" x="0px" y="0px"
	 viewBox="0 0 300 300" style="enable-background:new 0 0 300 300;" xml:space="preserve">
<style type="text/css">
	.st0{fill:#007ACC;}
</style>
<g transform="translate(0.000000,630.000000) scale(0.100000,-0.100000)">
	<path class="st0" d="M0,4800V3300h1500h1500v1500v1500H1500H0V4800z M2417.6,4919.5c76.2-19,134.3-52.9,187.6-108.1
		c27.6-29.5,68.6-83.3,71.9-96.2c1-3.8-129.5-91.4-208.6-140.5c-2.9-1.9-14.3,10.5-27.1,29.5c-38.6,56.2-79,80.5-141,84.8
		c-91,6.2-149.5-41.4-149-121c0-23.3,3.3-37.1,12.9-56.2c20-41.4,57.1-66.2,173.8-116.7c214.8-92.4,306.7-153.3,363.8-240
		c63.8-96.7,78.1-251,34.8-365.7c-47.6-124.8-165.7-209.5-331.9-237.6c-51.4-9-173.3-7.6-228.6,2.4c-120.5,21.4-234.8,81-305.2,159
		c-27.6,30.5-81.4,110-78.1,115.7c1.4,1.9,13.8,9.5,27.6,17.6c13.3,7.6,63.8,36.7,111.4,64.3l86.2,50l18.1-26.7
		c25.2-38.6,80.5-91.4,113.8-109c95.7-50.5,227.1-43.3,291.9,14.8c27.6,25.2,39,51.4,39,90c0,34.8-4.3,50-22.4,76.2
		c-23.3,33.3-71,61.4-206.2,120c-154.8,66.7-221.4,108.1-282.4,173.8c-35.2,38.1-68.6,99-82.4,150c-11.4,42.4-14.3,148.6-5.2,191.4
		c31.9,149.5,144.8,253.8,307.6,284.8C2242.9,4936.2,2365.7,4932.4,2417.6,4919.5z M1713.3,4794.3l1-122.9H1519h-195.2v-554.8
		v-554.8h-138.1h-138.1v554.8v554.8H852.4H657.1v120.5c0,66.7,1.4,122.4,3.3,123.8c1.4,1.9,239,2.9,527.1,2.4l524.3-1.4
		L1713.3,4794.3z"/>
</g>
</svg>
