<?xml version="1.0" encoding="utf-8"?>
<!-- Generator: Adobe Illustrator 20.1.0, SVG Export Plug-In . SVG Version: 6.00 Build 0)  -->
<svg version="1.1" id="WebGL" xmlns="http://www.w3.org/2000/svg" xmlns:xlink="http://www.w3.org/1999/xlink" x="0px" y="0px"
	 viewBox="0 0 300 300" style="enable-background:new 0 0 300 300;" xml:space="preserve">
<style type="text/css">
	.st0{fill:#AE132A;}
</style>
<title>WebGL_RGB_May16</title>
<g>
	<g id="TM">
		<path class="st0" d="M291.6,170.5h-2v5.3h-1.8v-5.3h-2V169h5.9L291.6,170.5L291.6,170.5L291.6,170.5z"/>
		<path class="st0" d="M292.4,169h2.6l1.2,4.6h0l1.2-4.6h2.6v6.8h-1.7v-5.2h0l-1.4,5.2h-1.4l-1.4-5.2h0v5.2h-1.7L292.4,169
			L292.4,169L292.4,169z"/>
	</g>
	<path class="st0" d="M221.1,175.5c-2.4,1-4.9,1.6-7.5,1.6c-4,0-7.6-0.7-10.8-2.1c-3.1-1.3-5.8-3.3-8.1-5.7c-2.2-2.5-3.9-5.4-5-8.6
		c-1.2-3.4-1.8-7-1.8-10.6c0-3.7,0.6-7.4,1.7-10.9c1.1-3.2,2.8-6.2,5-8.7c2.2-2.5,5-4.5,8.1-5.9c3.2-1.4,6.8-2.1,10.8-2.1
		c2.6,0,5.3,0.4,7.8,1.2c2.5,0.8,4.8,2,6.8,3.5c4.3,3.3,7,8.3,7.4,13.7h-10.9c-0.7-2.9-2-5.1-3.9-6.6c-1.9-1.5-4.3-2.2-7.1-2.2
		c-2.6,0-4.8,0.5-6.6,1.5c-1.8,1-3.3,2.3-4.4,4c-1.2,1.8-2,3.7-2.4,5.7c-0.5,2.2-0.8,4.4-0.8,6.7c0,2.2,0.3,4.3,0.8,6.4
		c0.5,2,1.3,3.9,2.4,5.6c1.1,1.7,2.6,3,4.4,4c1.8,1,4,1.5,6.6,1.5c3.8,0,6.7-1,8.8-2.9c2.1-1.9,3.3-4.7,3.6-8.3h-11.5v-8.6h21.9
		v28.2h-7.3l-1.2-5.9C225.9,172.6,223.6,174.4,221.1,175.5z"/>
	<path class="st0" d="M255,123.7v42.5h25.4v9.7h-36.8v-52.1L255,123.7L255,123.7z"/>
	<path class="st0" d="M200.9,182.3c-17.5,10.6-43.7,16.7-73,16.7c-52.7,0-95.4-21.9-95.4-49s42.7-49,95.4-49
		c29.3,0,55.7,6.2,73.2,16.9c-19.1-17.9-53.3-30.6-92.5-30.6C48.6,87.3,0,115.4,0,150s48.6,62.7,108.6,62.7
		C147.6,212.7,181.7,200.1,200.9,182.3z"/>
	<polygon class="st0" points="104.8,119.6 94.7,163.2 82.6,119.6 73.4,119.6 61.2,163.2 51.1,119.6 41.6,119.6 56.6,176.4 
		65.5,176.4 78,131.8 90.4,176.4 99.4,176.4 114.8,119.6 	"/>
	<path class="st0" d="M140,143.5c-1.3-1.9-3.1-3.5-5.2-4.5c-2.3-1.1-4.8-1.6-7.3-1.6c-3,0-5.8,0.6-8.2,1.6c-2.2,1-4.2,2.6-5.7,4.5
		c-2.8,3.6-4.3,8.8-4.3,14.8c0,2.6,0.4,5.1,1.2,7.5c0.7,2.2,1.8,4.3,3.3,6c3,3.5,7.4,5.4,12.6,5.4c2.7,0,4.9-0.3,6.8-0.9
		c1.3-0.4,2.5-1,3.6-1.8c1.1-0.8,2.2-1.7,3.1-2.7c0.8-0.9,1.5-1.9,2.1-3c1.1-1.9,1.6-3.8,1.7-4.7l0.1-0.6h-7.4l0,0.5
		c-0.2,2.4-3.3,6.7-9,6.7c-8,0-10-5.8-10.1-10.9H144v-0.6c0-3-0.3-6-1-9C142.4,148,141.4,145.6,140,143.5z M126.7,144.1
		c6,0,9.1,3.2,9.7,9.8h-19.3C117.4,148.6,121.6,144.1,126.7,144.1L126.7,144.1z"/>
	<path class="st0" d="M181.3,149c-0.7-2.2-1.7-4.2-3.1-6c-1.4-1.7-3.1-3.1-5.1-4c-2.1-1-4.5-1.5-6.8-1.5l0,0c-2.2,0-4.3,0.5-6.2,1.5
		c-1.6,0.8-2.9,1.9-4.1,3.3v-17.4h-7.4v51.6h7v-3.5c0.7,0.9,1.5,1.7,2.5,2.4c2,1.4,4.5,2.2,7.3,2.2c3.1,0,5.8-0.7,8.2-2
		c2.1-1.3,4-3.1,5.3-5.2c1.3-2.1,2.2-4.4,2.8-6.8c0.5-2.3,0.8-4.7,0.8-7C182.4,153.9,182,151.4,181.3,149z M174.7,157.3
		c0,4-0.8,7.4-2.4,9.8c-1.6,2.5-4,3.8-7.1,3.8c-4.4,0-9.6-3.1-9.6-11.8c0-4.2,0.5-7.4,1.6-9.8c1.5-3.5,4.1-5.2,7.9-5.2
		c4,0,6.7,1.6,8.2,4.8C174.5,151.6,174.7,154.8,174.7,157.3L174.7,157.3z"/>
</g>
</svg>
