<?xml version="1.0" encoding="utf-8"?>
<!-- Generator: Adobe Illustrator 20.1.0, SVG Export Plug-In . SVG Version: 6.00 Build 0)  -->
<svg version="1.1" id="Layer_1" xmlns="http://www.w3.org/2000/svg" xmlns:xlink="http://www.w3.org/1999/xlink" x="0px" y="0px"
	 viewBox="0 0 300 300" style="enable-background:new 0 0 300 300;" xml:space="preserve">
<g>
	<path d="M277.7,150.4c0-13.2-2-26-5.8-38l-57,148C252.5,238.1,277.7,197.2,277.7,150.4L277.7,150.4z"/>
	<path d="M109.7,271.5c12.7,4.3,26.3,6.6,40.4,6.6c14.8,0,28.9-2.5,42.1-7.1l-38.9-101L109.7,271.5L109.7,271.5z"/>
	<path d="M27.7,114.4c-3.4,11.4-5.2,23.5-5.2,36.1c0,47.8,26.3,89.5,65.2,111.3L28.1,115.2L27.7,114.4L27.7,114.4z"/>
	<path d="M92.7,106.1l-5.5-0.2c-12-0.2-10.6,12.2-10.6,12.2L119,224.5l28.5-68.1l-15.9-40.5c-6.4-10.7-21.9-10.6-21.9-10.6v-5.6
		h89.2l-0.1,6.3l-9.3,0.6c-11.6,0-9.2,11-9.2,11L219,220.8l11.1-28.6c19.7-44.6,7.5-77.6,7.5-77.6c-19.7-40.6,5.2-46.4,5.2-46.4
		c1.6-0.2,3.1-0.4,4.5-0.4c-23.4-27.5-58.3-44.9-97.2-44.9c-52.6,0-97.8,31.9-117.3,77.4l59.7-0.6L92.7,106.1L92.7,106.1z"/>
	<path d="M293.4,150c0,79.1-64.3,143.4-143.4,143.4C70.9,293.4,6.6,229.1,6.6,150C6.6,70.9,70.9,6.6,150,6.6
		C229.1,6.6,293.4,70.9,293.4,150z M150,0C67.3,0,0,67.3,0,150s67.3,150,150,150c82.7,0,150-67.3,150-150C300,67.3,232.7,0,150,0z"
		/>
</g>
</svg>
